<svg version="1.2" xmlns="http://www.w3.org/2000/svg" viewBox="0 0 937 938" width="937" height="938"><style>.a{opacity:1}</style><path fill-rule="evenodd" class="a" d="m913.5 227.2c0.5-0.1 1.9 0.1 3 0.3 1.1 0.3 2.5 1.5 3 2.8 0.8 1.5 0.8 23.1 0.2 69.7-0.4 37.1-0.6 146.4-0.3 242.8 0.5 139.8 0.3 175.2-0.7 175.3-0.6 0.1-201.2 0-445.7-0.1-244.5 0-444.6-0.2-444.7-0.3-0.2-0.1-0.6-109.6-1-243.3-0.6-184.5-0.5-243.4 0.4-244.5 1-1.2 62.3-1.4 426-1.1 235.6 0.1 432.4-0.1 441.8-0.6 9.3-0.5 17.5-1 18-1zm-864.5 23.8l0.5 445.5c818.5 0.5 846.1 0.4 847.5-1.1 1.3-1.5 1.5-27.6 1.5-222 0-179.4-0.2-220.5-1.3-221.6-1.1-1.1-69.2-1.3-372-1.3-203.9 0-394.4 0.1-423.5 0.2zm797 65.7c6.7 0.3 9.9 1.1 14.8 3.4 3.6 1.7 8.8 5.4 12.2 8.7 4.8 4.6 6.3 7 8 12 1.1 3.4 2 8.8 2 12 0 3.6-0.7 7.3-2 10-1.3 2.9-2.7 4.4-4.5 4.7-1.3 0.3-3.1 0-4-0.7-0.8-0.7-1.5-2.1-1.5-3.3 0.1-1.1-1.4-3.4-3.2-5.1-1.8-1.7-4.2-3.6-5.3-4.1-1.1-0.6-4.2-1.8-7-2.8-3.4-1.2-6.6-1.5-10.5-1.1-3 0.3-6.2 0.1-7.2-0.4-1-0.5-1.8-1.6-1.8-2.5 0-0.8 1.4-2.8 3-4.5 2.4-2.3 4.2-3.1 8.8-3.6 3.5-0.3 7.7-0.1 10.7 0.7 2.8 0.7 5.9 1 7 0.6 1.9-0.6 1.7-1-2-4.8-2.2-2.2-6-5-8.5-6.2-3.5-1.7-6.2-2.1-12.5-2.1-6.6 0-8.8 0.5-13.2 2.8-3.5 1.8-6.5 4.4-9.1 7.9-2.1 2.9-4.3 6.1-4.9 7.2-0.5 1.2-1.3 3.7-1.6 5.8-0.4 2.1-0.2 6.6 0.4 10 0.6 3.4 2.3 8.7 3.7 11.7 1.4 3.1 3.3 6.7 4.2 8 1 1.4 3 4.6 4.6 7 1.6 2.5 3.6 5.4 4.4 6.4 0.9 1.1 2.3 2.8 3.3 3.8 1 1 1.7 2.3 1.7 2.8 0 0.6 1.3 2.5 2.9 4.3 1.5 1.8 3.1 4 3.5 5 0.3 1 1.1 1.7 1.6 1.7 0.6 0 1 0.7 1 1.5 0 0.9 0.9 2.8 1.9 4.3 1 1.5 2.6 4.3 3.4 6.2 0.9 2 2.1 5.9 2.7 8.8 0.6 2.9 1 9.4 1 14.5 0 5.1-0.5 11.9-1.1 15.2-0.6 3.4-1.8 7.6-2.7 9.5-0.8 2-2.5 5.1-3.8 7-1.2 2-4.7 6.6-7.6 10.2-2.9 3.7-5.6 6.7-6 6.8-0.4 0-2.4 1.2-4.5 2.6-2.1 1.4-5.3 3.4-7.2 4.3-2 0.9-5.6 3.7-8 6.3-2.5 2.5-5.1 5.3-5.8 6.2-0.7 0.9-1.3 1.9-1.3 2.1 0 0.3-0.8 1.6-1.9 2.8-1.1 1.2-1.8 2.6-1.5 3 0.2 0.4-0.2 1-1.1 1.2-0.8 0.3-2.4 3.1-3.6 6.3-1.4 3.9-2.1 7.9-2 12.2 0 3.6 0.5 7.9 1 9.5 0.5 1.7 2.2 6.2 3.6 10 1.5 3.9 4 10.4 5.5 14.5 1.5 4.2 3.2 8.4 3.9 9.5 0.6 1.2 3.4 8.1 6.2 15.5 3 7.8 6.1 14.4 7.4 15.5 1.3 1.2 2.5 2.9 2.8 4 0.3 1.2 0 2.8-0.6 3.7-0.6 0.8-2.7 2.5-4.7 3.7-1.9 1.2-4.8 2.1-6.5 2.2-1.6 0-4.5-0.4-6.5-0.8-2.1-0.4-5.4-2.5-8.5-5.4-2.7-2.6-5.2-4.3-5.5-3.8-0.2 0.6-2 1.1-3.9 1.2-2.9 0.2-3.6-0.2-4.4-2.3-0.5-1.3-0.6-3.7-0.3-5.2 0.4-1.5 1.7-3.7 2.9-4.9 1.2-1.1 4.2-2.9 6.5-4 2.3-1 5.4-1.6 6.7-1.4 1.4 0.3 2.7 0.2 3-0.2 0.2-0.4-0.3-2.8-1.1-5.3-0.8-2.4-3-7.6-4.8-11.5-1.8-3.8-3.9-8.7-4.6-11-0.6-2.2-1.8-5-2.6-6.2-0.7-1.2-1.8-3.9-2.3-6-0.5-2.1-1.7-6.2-2.5-9.3-0.9-3-1.6-8.7-1.6-12.7 0-4 0.8-9.8 1.7-13 0.9-3.2 2.4-6.6 3.4-7.8 1.1-1.1 1.9-2.3 1.9-2.7 0-0.4 1-2 2.2-3.5 1.1-1.5 1.8-3.2 1.6-3.8-0.3-0.5-3.6-1.2-7.4-1.6-3.8-0.4-9.8-1.7-13.4-2.9-3.5-1.2-8.9-3.3-11.9-4.8-3-1.5-7.1-4.3-9-6.2-2-2-4.3-3.9-5.3-4.3-1-0.3-1.8-1.3-1.8-2.2 0-0.8-0.4-1.2-1-1-0.5 0.3-1.2 0.1-1.5-0.5-0.2-0.5-1.1-1-2-1-0.8 0-2.7 0.6-4.2 1.2-1.5 0.6-3.4 1.3-4.3 1.4-0.8 0.2-3.6 1.3-6.2 2.4-2.6 1.1-5.3 2-6 2-0.7 0-3.6 1.2-6.5 2.5-3.8 1.9-6 2.3-7.9 1.8-1.4-0.4-3-1.4-3.4-2.3-0.4-0.8-0.2-4.6 0.5-8.5 0.8-3.8 3.1-10.9 5.2-15.7 2.1-4.8 5.4-10.8 7.3-13.3 2-2.6 6.7-7.8 10.6-11.8 3.8-3.9 9.8-9.2 13.3-11.7 3.4-2.4 6.2-4.8 6.2-5.2 0-0.4 0.7-0.8 1.7-0.8 1 0 4.9-1.5 8.7-3.4 3.9-1.9 9.3-4.2 12-5.1 2.8-0.9 8.9-1.9 13.5-2.2 4.9-0.3 10.8 0 13.8 0.6 2.9 0.6 8 2.7 11.2 4.6q6 3.5 10 9c2.3 3.1 4 6 4 6.5 0 0.6 0.9 2.7 2 4.8 1 2.1 2.2 7.1 2.6 11.2 0.4 4.4 0.2 11.1-0.4 16-0.7 4.7-1.4 9.9-1.7 11.5-0.4 1.7-0.8 3.4-1 3.8-0.3 0.4 0 1 0.5 1.2 0.6 0.3 2.9-1.4 5.1-3.7 2.2-2.3 5.5-6.7 7.4-9.8 1.8-3 4-7.6 4.9-10.2 0.9-2.6 1.9-7.3 2.3-10.5 0.3-3.3 0-9-0.7-13.3-0.7-4.1-2.6-10.1-4.2-13.5-1.6-3.3-3.3-6.2-3.6-6.5-0.4-0.2-2.4-3.4-4.6-7-2.2-3.5-5.3-8.3-7-10.6-1.7-2.2-3.7-5.1-4.6-6.4-0.8-1.3-2.6-3.5-4-5-1.3-1.4-3.1-4.1-3.9-6-0.8-1.9-2.3-5-3.4-7-1-1.9-2.5-5.8-3.3-8.7-0.7-2.9-1.4-9.1-1.4-13.8 0-7.3 0.5-9.4 3.3-15.7 2.1-4.9 4.8-8.8 8.2-12.2 2.8-2.6 7.5-6 10.5-7.4 3.1-1.4 7.1-2.9 9-3.3 2-0.4 7.4-0.5 12-0.2zm-84.2 118.2c-2.6 1.2-4.7 2.5-4.7 2.9 0 0.4-0.9 0.8-1.8 0.9-1 0.1-2.5 0.7-3.3 1.2-0.8 0.6-4.7 3.8-8.7 7.1-4 3.3-7.2 6.6-7.2 7.3 0 0.7-0.3 0.9-0.8 0.5-0.4-0.4-2.2 1-4 3-1.8 2.1-4.2 5.8-5.4 8.2-1.3 2.5-2.9 5.2-3.7 6-0.8 0.9-2 2.8-2.8 4.3-0.7 1.5-1 2.7-0.6 2.7 0.4 0 0.2 0.7-0.5 1.5-1 1.3-0.9 1.7 0.5 2.2 1 0.3 2.6 0.4 3.7 0.1 1.1-0.4 4.3-1.4 7-2.4 2.8-0.9 5.3-2.1 5.5-2.5 0.3-0.4 3-1.1 6-1.4 3.7-0.5 6.4-0.3 8 0.5 1.4 0.7 4.6 3.4 7 6 2.5 2.6 6.1 5.9 8 7.4 2 1.4 4.4 2.6 5.5 2.6 1.1 0.1 2.9 0.9 4 2 1.1 1 4.4 2.3 7.3 2.9 2.9 0.7 8.5 1.1 12.5 1 4 0 8.6-0.4 10.2-0.7 2.2-0.5 3.6-1.7 5.1-4.7 1.1-2.1 3.1-7.3 4.4-11.5 1.7-5.1 2.6-10.6 2.8-17.5 0.3-5.5 0-11.5-0.5-13.5-0.5-1.9-1.4-3.4-1.9-3.3-0.4 0.1-0.8-0.8-0.8-2 0.1-1.2-0.4-2.7-1-3.4-0.6-0.8-2.8-3.3-5.1-5.7-3-3.3-5.3-4.7-9.7-5.9-3.2-0.9-8.8-1.6-12.5-1.6-3.7 0-9.2 0.9-12.3 1.9-3 1-7.6 2.7-10.2 3.9zm-400.9-6.2c1.4 0.3 3 0.8 3.5 1.2 0.5 0.3 0.7 2 0.4 3.6-0.3 1.7-2.6 7.3-5.1 12.5-2.5 5.3-4.6 10.1-4.6 10.8 0 0.7-0.7 1.8-1.4 2.5-0.8 0.7-3.5 6.6-6.1 13.2-2.6 6.7-5.8 15-7 18.5-1.3 3.6-2.1 6.9-1.9 7.3 0.2 0.4 0.7 0.8 1.1 0.8 0.4 0 2.9-3.3 5.5-7.3 2.6-4 6.2-8.7 8-10.6 1.8-1.8 4.4-3.5 5.7-3.8 1.4-0.3 4.3 0.1 6.5 1 4 1.6 4.1 1.6 6.3-0.8 1.2-1.4 2.9-2.6 3.7-2.6 0.9 0 2.7 0.7 4 1.5 2 1.2 2.4 2.1 1.9 3.8-0.4 1.2-1.7 3.6-2.9 5.2-1.3 1.7-3.2 5.5-4.4 8.5-1.1 3.1-2 5.7-1.8 5.9 0.1 0.1 1.1 0 2.2-0.2 1.1-0.3 4.3-3 7-5.9 3.8-4 5.1-6.2 5.5-9.4 0.3-2.6 0.1-4.7-0.7-5.7-1-1.4-0.9-2.2 0.7-4.7 1.1-1.6 2.9-3.2 4-3.5 1.1-0.2 3.4 0.3 5.1 1.3 1.9 1.1 3.2 2.8 3.6 4.7 0.3 1.7 0 7.3-0.6 12.5-0.6 5.3-2.1 12-3.2 15-1.1 3.1-2.4 6.4-2.8 7.5-0.5 1.2-1.3 3.4-1.9 5-0.5 1.7-1.3 3.9-1.7 5-0.4 1.2-0.8 2.5-0.9 3-0.1 0.6 0.4 2.5 1.2 4.3 0.9 2.5 1.2 13.9 1.2 48.7 0 28-0.3 46.5-1 48-0.6 1.6-2.2 3-4.2 3.6-1.8 0.5-4.5 1-6 1-1.5 0-4.1-0.8-8.8-3.6l0.1-31c0-18.9-0.4-30.6-0.9-30-0.5 0.6-4.3 7.1-8.3 14.4-4.4 8-8.4 14.1-9.9 15-2 1.2-3.1 1.3-6 0.3-3.1-1-4.1-2.4-10.3-14.4-3.8-7.3-7.5-13.9-8.3-14.8-1.2-1.2-1.4 2.7-1.1 29.4 0.2 29.8 0.2 30.9-1.8 32.2-1.1 0.8-3.5 1.8-5.5 2.1-2 0.4-5.1 0.1-11.5-2.2l-0.4-100 2.2-2.3c1.9-2 3-2.3 13.8-1.7v-3.5c0-1.9 0.3-6.2 0.6-9.5 0.3-3.3 1.2-7 1.9-8.2 0.8-1.2 1.4-3.4 1.4-4.8 0-1.3-0.4-2.5-1-2.5-0.5 0-1.9 1.4-3 3-1.1 1.7-2 3.4-2 3.8 0 0.4-1.8 2.9-4 5.5-2.3 2.8-5.1 5-6.7 5.3-1.5 0.3-4.6 0.1-6.8-0.4-2.4-0.6-4.6-2-5.7-3.6-1-1.4-1.9-3.4-2-4.5-0.1-1-0.6-2.1-1-2.5-0.4-0.3-1.5 0.2-2.5 1.1-1 0.9-4.9 3.5-8.8 5.7-5.2 3.1-8.3 4.2-12.5 4.5-4.3 0.4-6.2 0-9.2-1.7-2.7-1.5-4.1-3.2-4.9-5.9-1-3.2-0.9-4.5 0.8-8.8 1.1-2.7 3.5-7.2 5.4-10 1.9-2.7 3.3-5.3 3.2-5.7-0.1-0.4 0.1-0.7 0.5-0.7 0.4 0 1.6-0.8 2.7-1.9 1.1-1 3.7-2.1 5.8-2.5 2.5-0.4 4.9-0.1 7.2 0.8 2 0.9 4 2.7 4.5 4q1 2.5 0 5c-0.5 1.4-0.6 3.1-0.2 3.8 0.4 0.7 0.3 1-0.3 0.5-0.5-0.3-2.5 1-4.5 3-1.9 2-5.3 4.9-7.5 6.5-2.2 1.5-5 2.8-6.2 2.8-1.2 0-2.4 0.5-2.7 1.2-0.2 0.7-0.1 1.7 0.3 2.2 0.4 0.6 1.2 1.2 1.9 1.3 0.7 0.1 4.1-1.2 7.5-3.1 3.4-1.8 8.9-5.2 12.2-7.6 3.3-2.5 7.3-5.7 8.8-7.2 1.5-1.6 4.2-3.2 6-3.5 1.8-0.4 4.5-2.1 6-3.8 1.5-1.7 2.7-3.5 2.7-4.1 0-0.5 1.1-1.5 2.5-2.2 1.4-0.7 3-1 3.5-0.8 0.6 0.3 2.7 0.1 4.8-0.4 2.3-0.6 4.6-0.6 6 0 1.4 0.6 3.1 0.6 4.5 0 1.4-0.5 2.9-2.7 4.1-5.7 1-2.7 3.4-8.7 5.3-13.4 2-4.6 4.3-9.6 5.2-11 0.9-1.3 2.2-3.6 3-5 0.8-1.3 2-3.7 2.8-5.2 0.7-1.5 2.3-3.4 3.4-4.2 1.2-0.7 3.3-1.2 4.8-0.9zm-92.9 63.5c0 0.4 0.5 0.8 1 0.8 0.6 0 2.6-1.3 4.5-3 2-1.6 3.5-3.6 3.5-4.5 0-0.8 0.5-1.2 1-1 0.6 0.3 1-0.3 1-1.5 0-1.1-0.1-2-0.4-2-0.2 0-2.7 2.3-5.6 5.2-2.8 2.8-5.1 5.5-5 6zm46.2-1.7c-1.4 2.2-2.6 4.3-2.6 4.5-0.1 0.3-0.5 1.2-1.1 2-0.7 1.1-0.5 1.3 1 0.9 1.1-0.3 1.9-1 1.8-1.7-0.1-0.6 0.3-0.9 1-0.7 0.7 0.3 3.2-2.1 5.5-5.2 2.4-3.2 4.3-6.3 4.3-7 0-0.7-0.4-1.3-0.9-1.3-0.5 0-2.1 1.1-3.7 2.3-1.5 1.2-3.9 4-5.3 6.2zm40.6 2.5c-1.5 2-2.7 3.9-2.7 4.3 0 0.4 0.5 0.8 1.2 0.8 0.7 0 3.4-2.2 6-5 2.6-2.8 4.7-5.5 4.7-6.1 0-0.5-0.5-0.9-1.2-0.9-0.7 0-2.2 0.8-3.3 1.7-1.1 1-3.2 3.3-4.7 5.2zm-17.9 12.3c0.1 0.4-0.3 0.7-0.9 0.7-0.5 0-1.4 1.7-1.9 3.8-0.6 2.1-1.1 6.9-1.1 10.7 0 5.2 0.4 7.4 1.6 8.5 0.9 0.9 1.4 2.6 1.1 4-0.2 1.4-0.9 2.4-1.5 2.3-0.6-0.1-1.2 0-1.2 0.2 0 0.3 2.3 4.8 5 10 4.6 8.7 5.3 9.5 7.7 9.3 2.1-0.2 3 0.4 3.9 2.2l1.2 2.5c2.6-3.9 3-5.8 2.7-7q-0.6-1.9 0.2-0.6c0.6 0.9 1.8-0.4 3.9-4.5 1.7-3.2 4.6-8.6 6.4-11.9 1.9-3.2 5.3-8 7.8-10.5 2.4-2.4 4.9-6.1 5.6-8.2 0.6-2.1 1.5-3.8 1.9-3.8 0.4 0 1-0.7 1.3-1.7 0.3-1-0.1-2.1-0.8-2.4-0.7-0.4-1.7-0.4-2.3 0.1-0.5 0.4-2.6 1.1-4.7 1.4-2.3 0.4-3.8 0.3-3.8-0.4 0-0.5-1.1-0.7-2.7-0.3-2.3 0.5-2.6 0.3-2-1 0.5-1 0.1-2.5-1.1-3.9l-1.8-2.3c-4.5 5.1-6.1 6.3-6.4 6.1-0.2-0.3-1.8 0.5-3.5 1.6-2.2 1.6-3.8 2-6.2 1.5-1.8-0.4-3.9-1.3-4.8-2.2-0.8-0.8-1.2-2.4-0.9-3.7 0.3-1.3-0.1-3.1-1-4.3-1.5-1.9-1.5-1.9-1.6 0.5-0.1 1.4-0.1 2.9-0.1 3.3zm-191-76.3c1.5 0 3.9 1 5.5 2.3 2.6 2 2.8 2.6 2.1 6.2-0.4 2.2-1.5 5.8-2.5 8-1 2.2-2.8 6.5-4 9.5-1.1 3.1-3.6 8.7-5.5 12.5-1.9 3.9-3.5 7.6-3.5 8.3 0 0.7 0.7 1.2 1.5 1.2 0.9 0 1.9 0.7 2.3 1.6 0.7 1.3 1.3 1.2 5-0.5 3.1-1.5 5.9-2 10.2-1.8 3.2 0.1 5.7 0.5 5.4 0.7-0.2 0.3 1.4 1.6 3.6 2.8 3.4 1.9 4.4 2.1 6.3 1.1 1.2-0.6 3.8-1.1 5.7-1.1 3 0.1 4.3-0.6 8.5-4.9 2.8-2.8 7.3-6.6 10-8.5 2.8-1.8 6.3-3.4 7.8-3.4 1.5 0 4.1 0.8 5.8 1.8 1.6 1 3 2.5 3 3.5 0 1-1.3 2.9-2.8 4.3-1.5 1.4-3.2 2.5-3.8 2.5-0.5-0.1-0.6 0.2-0.2 0.7 0.4 0.4-1.5 1.8-4.3 3-2.7 1.2-5.2 2.9-5.5 3.7-0.2 0.9-1.1 1.5-2 1.5-0.8 0-1.2 0.5-1 1 0.3 0.6-0.1 1-1 1-0.8 0-2.2 1.7-3 3.8-0.9 2.1-1.3 4.8-1 6 0.3 1.2 2 3.2 3.8 4.4 1.8 1.2 4.7 3.7 6.5 5.5 1.8 1.9 3.2 4.2 3.2 5.3 0 1.2-1 2.7-2.2 3.4-1.2 0.7-6.3 2.1-11.3 3-4.9 0.9-10.4 1.7-12.2 1.7-1.8 0-4.7-0.7-6.5-1.4-1.8-0.7-4-2.1-5-3-1.4-1.3-1.5-1.9-0.5-3.2 0.9-1.3 2.2-1.5 5.2-1 2.6 0.4 6.3 0 10-1 3.3-0.9 7.1-1.8 8.3-2 1.2-0.3 2.2-0.7 2.2-1 0-0.2-2.2-2.7-5-5.5q-5-5-6-9c-0.5-2.2-1.6-4.2-2.5-4.5-0.8-0.2-2.7 0.5-4.2 1.6-1.5 1.2-4.4 4.7-6.3 7.8-2 3.1-6 7.7-8.9 10.1-2.9 2.5-6 4.9-6.9 5.4-0.9 0.5-4.8 0.7-8.7 0.5-5.1-0.2-7.6-0.9-8.8-2.1-0.9-1-1.7-2.9-1.7-4.3 0-1.3-0.3-2.3-0.7-2.1-0.4 0.2 0-1.3 0.9-3.2 0.9-2 2.3-4.2 3.2-4.9 0.9-0.7 1.4-1.8 1-2.5-0.3-0.7 0.2-2.8 1.1-4.8 1.2-2.3 1.5-4.1 0.9-5.2-0.8-1.7-1.1-1.7-3.6 0.7-1.5 1.4-2.7 2.9-2.7 3.3 0 0.4-0.9 2.5-2.1 4.7-1.1 2.2-2 5.1-2 6.3 0 1.2-0.3 2.4-0.7 2.5-0.4 0.1-2 2.7-3.5 5.7-1.5 3.1-3.1 6.9-3.5 8.5-0.3 1.7-0.7 3.3-0.7 3.7 0 0.4-0.4 1.1-0.8 1.5-0.5 0.5-0.8 1.2-0.8 1.6 0 0.4 2.2 0.8 4.8 0.8 3.1 0 5.4 0.6 6.5 1.7 1.2 1.2 1.8 3.2 1.8 6.2 0 2.5-0.7 5.6-1.5 6.8-1.4 2-2.4 2.2-9.6 2.2-6.9 0-8 0.3-8 1.8 0 1-0.2 4.2-0.3 7.2-0.2 3.1 0.2 6.4 0.8 7.5 0.7 1.2 1.1 3.7 0.9 5.8q-0.3 3.8-1.9 3.7c-0.8 0-2.1-0.6-3-1.5-0.8-0.8-1.7-2.5-2-3.7-0.3-1.2-1.2-3.6-2-5.3-0.8-1.6-1.7-5.8-3-15.5l-15 0.5-0.5 27.5 10.8 0.1c6.5 0 11.7 0.5 13.2 1.2 1.3 0.7 2.8 2.6 3.3 4.2 0.5 1.7 0.7 4.1 0.4 5.3-0.4 1.2-1.6 3.1-2.7 4.2-1.7 1.8-3.3 2-25 2v20c0 19.9 0 20.1-2.4 22.5-2 2.1-3.4 2.6-7.8 2.6-3 0-6.2-0.7-9.8-3.1l0.1-50.2c0-46.2 0.1-50.4 1.7-52 1-1 2.3-1.8 3-1.8 0.7 0 2.1-1.9 3.2-4.2 1-2.3 2.2-6.3 2.6-8.8 0.5-3.1 0.2-5.4-0.8-7.5-0.8-1.6-1.8-5.7-2.1-9-0.5-4.9-0.3-6.3 1.1-7.7 1-0.9 4-1.9 6.7-2.2 3.3-0.4 5.4-1.2 6-2.3 0.6-1 1.6-3.8 2.3-6.3 0.7-2.4 1.5-5.8 1.8-7.5 0.3-1.6 1.1-4.6 1.8-6.7 0.9-3 0.9-4-0.1-5-0.7-0.7-1.3-2.1-1.3-3.3 0-1.1 0.7-2.6 1.6-3.5 0.9-0.8 2.1-3.3 2.7-5.5 0.6-2.2 1.8-4.5 2.7-5.2 0.8-0.7 2.8-1.3 4.3-1.3 1.5 0 3.6 0.9 4.7 2 1.2 1.2 2.1 3.4 2.1 5.3 0 1.8-1.2 7.3-2.6 12.2-1.4 5-3.8 12-5.4 15.5-1.5 3.6-2.5 7.1-2.2 7.9 0.4 0.9 2.5 1.3 6.1 1.3 3.1-0.1 7.8-0.4 10.5-0.9q5.1-0.8 5.1-2.3c0-0.8 0.8-2.9 1.8-4.7 0.9-1.8 1.6-3.8 1.6-4.5 0-0.7 0.7-1.9 1.6-2.8 0.9-0.8 2.7-3.7 3.9-6.5 1.3-2.7 4.4-9.7 7-15.5 2.6-5.7 5.2-11.5 5.8-12.7 0.7-1.5 1.9-2.3 3.6-2.3zm-43.6 59l-7.3 1c-4.5 9.7-6.3 13.9-7 15.5-0.6 1.7-1.1 3.3-1.1 3.5-0.1 0.3-1 2.8-2.1 5.5-1.1 2.8-2.4 6.1-2.9 7.3l-0.9 2.2 22.5 0.1c2.7-10.5 3.5-14.2 3.5-15.1 0-0.8 0.8-2.6 1.9-4 1-1.3 2.8-4.7 3.9-7.5 1.1-2.7 2.3-5.7 2.7-6.7 0.3-1 0.7-2 0.8-2.4 0.1-0.4-0.7-0.7-1.8-0.9-1.1-0.1-2.6 0-3.5 0.1-0.8 0.2-4.7 0.8-8.7 1.4zm-21.4 5.9l0.3 3.6c2.3-5.4 2.8-7.2 2.6-7.6-0.3-0.3-1.1-0.4-1.8-0.1-0.9 0.3-1.3 1.7-1.1 4.1zm63.8 3.4c-2 3.4-3.7 6.8-3.7 7.5 0 0.7 0.5 1.2 1 1.2 0.6 0 2.5-0.7 4.3-1.6 1.8-0.9 3.9-2.3 4.7-3 0.9-0.8 3.2-3.1 5.3-5.1 2.1-2.1 3.7-4.1 3.7-4.5 0-0.4-2.6-0.8-5.8-0.8h-5.8zm254.9-47.2c2.4 0 3.8 0.6 4.9 2.2 0.8 1.3 1.5 3.2 1.5 4.3 0 1.1-1.3 3.5-2.8 5.4-2.3 2.9-3.1 3.3-5.7 2.7-1.6-0.3-3.6-1.4-4.3-2.4-0.7-0.9-1.3-2.9-1.3-4.3-0.1-1.5 0.9-3.8 2.1-5.3 1.5-1.9 3.1-2.6 5.6-2.6zm-176.1 17.1c0.6-0.1 1.8 0.6 2.8 1.6 0.9 1 1.7 2.7 1.7 3.8 0 1.1-0.2 3.6-0.4 5.5-0.2 1.9-0.2 3.8 0 4.2 0.2 0.5 1.7-0.4 3.3-2 1.5-1.5 3.7-3.2 4.7-3.8 1-0.6 4.2-2.3 6.9-3.8 5-2.6 5-2.6 9.2-0.9 3.7 1.6 4.3 2.3 5.3 6.3 0.9 3.7 0.8 5.3-0.7 9-0.9 2.5-3.1 6-4.8 7.9-1.6 1.9-4.3 4.8-6 6.6-1.6 1.7-5.1 4.6-7.7 6.3-2.7 1.8-6.5 3.6-8.5 4.2-2.1 0.5-5.3 1-7 1-2 0-3.2 0.5-3.2 1.2 0.1 0.7 0.1 1.9 0 2.5 0 0.7-0.5 1.1-1.1 0.8-0.5-0.3-2.5 3.3-4.2 8-1.8 4.7-3.6 8.5-4 8.5-0.5 0-1.2 1.5-1.8 3.2-0.5 1.8-2.1 5.5-3.6 8.3-1.5 2.7-3.3 6.1-4 7.5-0.8 1.4-1.4 3.9-1.5 5.5 0 1.6-0.4 3.9-0.9 5-0.5 1.1-0.9 1.7-0.9 1.2-0.1-0.4-1.3 0.1-2.8 1-1.5 1-2.4 1.2-2 0.5 0.4-0.6 0.4-1.2 0-1.2-0.5 0.1-1.4-1.4-2.2-3.2-1.1-2.5-1.2-4.3-0.4-7.8 0.6-2.5 1.9-6.8 2.8-9.5 1-2.8 2.6-6.8 3.5-9 1-2.2 2.1-5.8 2.5-8 0.4-2.2 1.3-4.7 2-5.5 0.7-0.8 2-4 3-7 1-3 2.4-6.7 3.1-8.3 0.8-1.5 2-5.5 2.8-9 0.8-3.4 2.5-10 3.8-14.7 1.4-4.7 3.3-9.9 4.2-11.7 1-1.7 2.5-3.4 3.4-3.6 1-0.3 2.2-0.5 2.7-0.6zm5.1 31.4c-0.2 1.1-0.5 2.3-0.5 2.7-0.1 0.5-0.7 0.5-1.3 0.2-0.7-0.3-1.6 0.2-2 1-0.5 1-0.3 1.8 0.5 2.2 0.6 0.3 3-0.7 5.2-2.1 2.2-1.5 6.2-5 8.8-7.8 2.6-2.9 5.8-7.1 7-9.5 1.5-2.9 1.9-4.6 1.2-5.2q-1.1-1-9.8 7.7c-4.8 4.9-8.9 9.7-9.1 10.8zm195.2-23.5c0.6 0 2.7 0.7 4.5 1.5 2.3 1 3.4 2.4 4 4.7 0.4 1.8 0.3 4.4-0.2 5.8-0.5 1.4-2.7 4.3-5 6.5-2.2 2.2-3.7 4.4-3.3 5 0.4 0.6 0.2 0.7-0.6 0.2-0.6-0.4-1.4-0.3-1.7 0.3-0.3 0.5-1.7 1.5-3.2 2-2.6 1-2.7 1.2-1.1 2.8 1.6 1.6 1.9 1.6 5-0.3 1.8-1.2 4.8-3.4 6.7-5 1.8-1.7 3.8-3 4.5-3.1 0.6 0 3.7-2.2 6.9-4.7 3.1-2.6 6.6-4.7 7.7-4.7 1.1 0 2.2-0.5 2.5-1 0.3-0.6 1.4-1 2.5-1 1.2 0 2 0.7 2 1.7 0.1 1-2.8 4.5-6.2 7.9-3.5 3.3-8.8 7.6-11.8 9.5-3 2-7.5 4.8-10 6.5-3.6 2.3-5.6 2.9-10 2.8-3 0-6.7-0.2-8.2-0.5-1.4-0.2-2.4-0.7-2.2-1.2 0.2-0.4 0-0.7-0.6-0.7-0.5 0-1.7-1.7-2.6-3.8-1-2.2-1.3-4.9-1-6.7 0.4-1.6 2.5-6.1 4.8-10 2.3-3.9 4.9-7.9 5.7-8.9 0.9-1 3.4-2.7 5.6-3.7 2.2-1 4.6-1.9 5.3-1.9zm-8.8 16.2c0 0.5 0.3 0.8 0.8 0.8 0.4 0 2.4-1.7 4.4-3.7 2.1-2.1 3.8-4.1 3.8-4.6 0-0.4-0.5-0.7-1-0.7-0.6 0-2.6 1.7-4.5 3.7-1.9 2.1-3.5 4.1-3.5 4.5zm-259.7 32c1.8 0.4 3.7 0.4 4.2 0.1 0.6-0.3 0.7-0.2 0.3 0.3-0.4 0.5-0.1 1.8 0.7 2.9 1.3 1.7 1.5 8.6 1.5 86.5h18.5c18.1 0 18.5 0.1 20 2.2 0.8 1.3 1.5 4.1 1.5 6.3 0 2.2-0.7 5-1.5 6.2-1.5 2.3-1.7 2.3-27.7 2.3-24.6 0.1-26.5 0-31.3-3.8l-0.2-47.4c-0.1-28.1 0.2-48.8 0.7-51.1 0.7-2.6 1.7-3.8 3.3-4.2 1.2-0.2 3.2-0.6 4.5-0.7 1.3-0.2 3.7 0 5.5 0.4zm98.3-0.2c3.7 0 7.7 0.6 9.4 1.5 2.7 1.3 3.4 2.8 6.9 14.2 2.2 7.1 5.3 17.3 7 22.8 1.6 5.5 4.2 13.8 5.6 18.5 1.4 4.7 3.8 12.3 5.2 17 1.3 4.7 3.6 12.3 4.9 17 1.4 4.7 2.2 9.2 2 10-0.3 0.8-2.2 2.5-4.3 3.7-2.1 1.2-5.6 2.3-7.8 2.3-2.2 0.1-4.5-0.5-5.2-1.2-0.7-0.7-2.6-5.8-4.3-11.3-1.7-5.5-3-10.1-3-10.3 0-0.1-7-0.2-15.5-0.2-11.4 0-15.7 0.3-16.2 1.2-0.3 0.7-1.6 4.9-2.8 9.3-1.2 4.4-2.8 9.1-3.6 10.3-1.3 2.2-1.9 2.3-6.9 1.7-3-0.3-6.3-0.6-7.2-0.7-0.9-0.1-1.5-0.4-1.2-0.5 0.2-0.2-0.3-1-1.1-1.8-0.8-0.8-1.5-2.4-1.5-3.5 0-1.1 0.7-4.6 1.6-7.8 0.9-3.1 7.2-24.2 14-46.7 10.2-33.6 12.9-41.4 15-43.3 2.1-1.8 3.7-2.2 9-2.2zm-1 33.5c-0.9 3.3-3.5 12-5.6 19.2-2.2 7.3-4 13.5-4 13.8 0 0.3 4.6 0.2 10.3-0.1 5.6-0.4 10.5-0.9 10.9-1.3 0.4-0.3-0.2-3.5-1.3-7.1-1.1-3.6-3.5-11.9-5.3-18.5l-3.3-12zm160.6-33.3c3.6 0.2 6.4 0.6 6.2 1-0.2 0.5 0.3 1 1.1 1.3 1.3 0.4 1.5 7 1.5 50.7 0 46.8-0.1 50.4-1.7 51.8-1.1 0.9-4.1 1.7-7.3 1.9-4.3 0.2-6.1-0.2-11-3.9v-48.5c0-34.6 0.3-49.1 1.2-50.8 0.6-1.2 1.6-2.5 2.2-3 0.6-0.4 4.1-0.6 7.8-0.5zm31.1-0.2c2.7 0 5.9 0.7 7.7 1.7 2.1 1.3 4.8 5.3 9.5 14.3 3.6 6.9 10.2 19.8 23 45l0.5-28.9c0.5-27.5 0.6-29.1 2.5-30.5 1.1-0.9 4.2-1.6 7-1.6 3.5 0 5.8 0.5 10.5 4l-0.3 50.2c-0.2 27.7-0.5 50.8-0.7 51.3-0.2 0.5-3.5 1.2-7.4 1.3-3.9 0.2-7.5 0.6-8.1 0.9-0.5 0.4-0.7 0.2-0.3-0.3 0.4-0.5-0.3-1.6-1.5-2.5-1.2-0.9-4.4-5.9-7.2-11.2-2.8-5.4-5.4-9.3-6-8.9-0.6 0.4-0.7 0.2-0.2-0.6 0.4-0.6 0.3-1.8-0.2-2.5-0.5-0.6-4.1-7.5-8.1-15.2-4-7.7-7.8-14.8-8.4-15.7-0.6-1-1.4-1.5-1.9-1-0.4 0.4-0.7 12.4-0.7 26.7 0 14.3-0.4 26.5-0.8 27.1-0.4 0.6-1.7 1.6-2.9 2.3-1.3 0.6-4.8 1-7.9 0.8-4.3-0.1-6-0.7-7-2.2-1.2-1.6-1.5-11-1.7-101.5l2.9-1.4c1.6-0.9 5-1.5 7.7-1.6zm107.2 0.4c6.1 0.2 10.8 1 14.5 2.4 3 1.2 7.3 3.6 9.5 5.5 2.2 1.8 5.1 5.6 6.4 8.3 1.7 3.3 2.5 6.7 2.5 10.6 0.1 4.7-0.3 6.1-2.4 8.2-1.8 1.9-3.5 2.6-6 2.6-1.9 0-5-0.4-6.7-1-2.6-0.8-3.5-1.8-4.3-4.8-0.5-2-1-4.3-1-5 0-0.6-0.6-2.3-1.2-3.7-0.8-1.6-3.2-3.3-6.3-4.6-3.4-1.4-5.9-1.8-8-1.4-1.6 0.4-4.1 1.3-5.5 2-1.4 0.7-3.4 3-4.5 5.1-1.8 3.6-2 5.9-2 28.9 0 21.7 0.2 25.5 1.8 28.7 0.9 2.2 3 4.5 4.7 5.3 1.7 0.8 4.9 1.6 7.3 1.7 2.6 0.1 5.5-0.6 7.7-1.8 1.9-1.1 4.3-3.5 5.3-5.4 1.1-2.2 1.7-5.8 1.7-16h-7.2c-6.8 0.1-7.4-0.1-8.5-2.5-0.7-1.4-1.3-4-1.3-5.8 0-1.7 0.7-4.2 1.5-5.5 1.4-2.1 2.1-2.2 30.5-2.2l5.4 5.5-0.5 14.5c-0.4 12.2-0.9 15.3-2.8 19.5-1.2 2.7-3.4 6.3-4.9 7.8-1.5 1.6-4 3.7-5.7 4.7-1.6 1.1-5.2 2.6-8 3.4-2.7 0.9-8.4 1.6-12.5 1.6-4.1 0-10-0.7-13-1.5-3-0.8-6.5-2.2-7.7-3-1.3-0.8-3.4-2.7-4.8-4.3-1.4-1.5-3.4-4.1-4.5-5.7-1-1.6-2.4-5.5-3-8.5-0.6-3.1-1-16.8-1-32 0-21 0.4-27.5 1.6-31.5 0.8-2.8 2.9-6.8 4.5-9 1.6-2.2 4.4-5 6.2-6.3 1.7-1.2 5.5-2.9 8.2-3.7 3.2-0.9 8.2-1.3 14-1.1zm78-0.3c3.9-0.1 9.3 0.5 12 1.3 2.8 0.7 6.4 2 8 2.9 1.7 0.8 4.4 3 6.2 4.9 1.8 1.8 4.2 5.5 5.5 8.3 2.2 4.8 2.3 6.2 2.6 35 0.3 28.3 0.2 30.3-1.7 35.5-1.2 3-3.8 7.3-5.8 9.4-2.1 2.2-6.3 5.1-9.3 6.5-4.8 2.3-6.8 2.6-16 2.6-7.3 0-12.1-0.5-15.7-1.8-2.9-0.9-6.3-2.6-7.5-3.7-1.3-1.1-2.6-2-3-2-0.5 0-2.5-3.5-8.3-15.4l0.1-30.1c0.1-25 0.4-30.7 1.8-34.3 0.9-2.3 1.3-4.8 0.9-5.5-0.5-0.7-0.4-0.9 0.2-0.5 0.6 0.4 2-0.6 3.3-2.2 1.2-1.7 4.1-4.2 6.4-5.8 2.3-1.5 6.3-3.2 8.8-3.9 2.5-0.6 7.7-1.2 11.5-1.2zm-8.3 19.8c-1.3 0.9-2.9 3.3-3.7 5.3-1.2 3-1.5 9.2-1.5 28 0 21.3 0.3 24.8 1.9 28.3 1 2.2 2.4 4.5 3.2 5.1 0.8 0.7 3 1.6 4.9 2.2 2.1 0.6 5.1 0.7 7.5 0.2 2.5-0.6 5.1-2.1 7.1-4.2l3-3.3c1.1-35.6 1.1-48.5 0.6-51.6-0.5-4.5-1.3-6.3-3.7-8.4-1.6-1.5-4-3.2-5.2-3.6-1.3-0.5-3.5-0.8-5-0.8-1.6 0.1-3.7 0.4-4.8 0.6-1.1 0.3-3 1.3-4.3 2.2zm86.8-19.8c3.6-0.1 9.1 0.6 12.3 1.4 3.1 0.8 7.4 2.6 9.5 3.8 2 1.3 5 3.9 6.6 5.8 1.6 1.9 3.5 4.9 4.3 6.6 0.7 1.8 1.4 6.1 1.4 9.5 0.1 5.5-0.2 6.5-2.2 8.1-1.6 1.2-4.1 1.8-7.6 1.7-3.9 0-5.8-0.5-7.3-2-1.2-1.2-2-3.3-2-5.3 0-1.7-0.7-4.3-1.7-5.7-0.9-1.4-2.6-3.3-3.7-4.3-1.2-1-2.7-1.5-3.3-1.2-0.7 0.3-1.1 0-0.8-0.5 0.3-0.6-1.1-1-3.2-1-2.1 0-5.1 0.4-6.8 1-1.9 0.6-3.6 2.3-4.7 4.5-1 1.9-1.8 5-1.8 6.7 0 2.1 0.9 4.3 2.5 6 1.4 1.6 8.7 5.8 16.2 9.5 7.6 3.8 15.7 8.6 18.3 10.9q4.5 4 6.3 9c1.1 3 1.7 7.7 1.7 12.4 0 6.4-0.5 8.5-3.2 14-1.7 3.6-3 7-2.9 7.5 0.2 0.5-0.1 0.7-0.6 0.3-0.4-0.4-2.1 0.4-3.8 1.7-1.6 1.4-5.8 3.4-9.2 4.5-3.8 1.2-9 2-13 2-3.8 0-9-0.6-11.8-1.4-2.7-0.7-6.3-2-8-2.8-1.6-0.9-4.5-2.8-6.4-4.4-1.8-1.6-4.5-5.2-5.9-7.9-1.8-3.7-2.5-6.7-2.6-11.3-0.1-5.7 0.2-6.6 2.4-8.3 1.8-1.4 4-2 7.8-1.9 3.8 0 5.7 0.5 7.2 2 1.1 1.1 2 2.6 2.1 3.2 0 0.7 0.2 2.2 0.4 3.3 0.3 1.1 1 3.3 1.7 4.9 0.7 1.5 2.7 3.7 4.3 4.7 1.7 1 4.9 1.9 7.3 1.9 2.3 0 5.6-0.7 7.2-1.5 1.8-0.9 3.6-3 4.6-5.3 0.8-2 1.3-4.8 1-6.2-0.3-1.4-2.1-4-4.1-5.8-1.9-1.7-9.2-6-16.2-9.5-7.1-3.4-13.9-7-15.3-8-1.4-0.9-2-1.7-1.5-1.7 0.6 0 0.2-0.5-0.7-1.2-0.9-0.7-2.8-3.6-4.3-6.3-2-4-2.5-6.4-2.5-12 0-3.9 0.7-9.3 1.5-12 0.8-2.8 2.6-6.5 3.9-8.3 1.3-1.8 4.3-4.5 6.7-6 2.4-1.5 6.4-3.2 8.9-3.9 2.5-0.6 7.4-1.2 11-1.2zm56 86.9c4 0 5.5 0.5 7.5 2.5 2 2 2.5 3.5 2.5 7.5 0 4-0.5 5.5-2.5 7.5-1.9 1.9-3.4 2.5-7 2.5-3.5 0-5.1-0.6-7.4-2.8-1.9-1.7-3.1-3.8-3.2-5.7 0-1.7-0.1-3.7 0-4.5 0-0.8 1.2-2.8 2.6-4.3 2.1-2.2 3.4-2.7 7.5-2.7z"/></svg>