<svg version="1.2" xmlns="http://www.w3.org/2000/svg" viewBox="0 0 937 938" width="937" height="938">
	<style>
		.s0 { opacity: 1;fill: #ffffff } 
	</style>
	<path id="Path 0" fill-rule="evenodd" class="s0" d="m31.94 227.51c0.86 0.28 186.73 0.57 413.06 0.64 226.33 0.07 425.45 0.02 442.5-0.1 29.24-0.22 31.05-0.13 31.91 1.61 0.5 1.02 0.82 18.94 0.71 40.34-0.1 21.18-0.3 95.2-0.43 164.5-0.14 69.3-0.01 160.88 0.28 203.5 0.29 42.63 0.24 78.17-0.12 79-0.58 1.33-50.68 1.48-443.5 1.28-346.41-0.16-443.13 0.05-444.15 1-1.02 0.96-1.59 0.9-2.69-0.28-0.77-0.83-1.64-2.85-1.94-4.5-0.29-1.65-0.63-111.43-0.75-243.96-0.21-235.1-0.17-240.99 1.67-242.25 1.03-0.72 2.59-1.07 3.45-0.78zm17.06 23.49l-0.02 444.5c46.13 1.04 236.68 1.26 453.22 1.17 321.53-0.14 393.94-0.41 395-1.47 1.06-1.06 1.3-42.1 1.3-221.21 0-209.79-0.08-220-1.79-221.7-1.7-1.71-16.6-1.79-339-1.79-185.46 0-375.8 0.11-422.96 0.25zm793.21 65.45c8.5 0.25 13.37 0.86 15.79 1.97 1.92 0.89 4.39 2.17 5.49 2.84 1.09 0.68 3.12 2.06 4.5 3.06 1.38 1 4.65 3.81 7.26 6.25 2.61 2.44 4.68 4.77 4.59 5.18-0.09 0.41 0.1 1.43 0.43 2.25 0.32 0.82 1.12 3.3 1.78 5.5 0.67 2.2 1.17 6.48 1.13 9.5-0.05 3.02-0.51 6.63-1.04 8-0.52 1.38-1.89 3.51-3.04 4.75-1.16 1.24-2.89 2.26-3.85 2.27-0.96 0.01-2.32-0.56-3.02-1.25-0.69-0.7-1.25-1.95-1.22-2.77 0.02-0.82-1.21-2.95-2.74-4.72-1.52-1.77-3.33-3.23-4.02-3.25-0.69-0.02-1.25-0.48-1.25-1.03 0-0.55-2.36-1.76-5.25-2.69-2.98-0.97-8.61-1.72-13.04-1.75-5.83-0.05-8-0.44-8.64-1.56-0.47-0.82-0.67-2.18-0.44-3 0.24-0.82 1.76-2.29 3.4-3.25 1.63-0.96 2.97-2.09 2.97-2.5 0-0.41 3.15-0.86 7-1 3.85-0.14 8.8 0.31 11 1 3.23 1.01 4.24 1 5.25-0.03 1.01-1.03 0.52-1.96-2.5-4.75-3.21-2.97-4-3.29-5.5-2.22-1.56 1.11-1.61 1.06-0.5-0.5 1.09-1.53 0.84-1.92-2-3.09-1.79-0.74-4.94-1.64-7-2-2.06-0.36-6.56-0.18-10 0.41-3.44 0.59-8.16 2.17-10.5 3.5-2.34 1.34-5 3.89-5.92 5.68-0.92 1.79-2.51 4.15-3.54 5.25-1.03 1.1-2.35 3.8-2.94 6-0.59 2.2-1.04 5.8-1.01 8 0.03 2.2 0.61 6.25 1.28 9 0.67 2.75 2.48 7.02 4.03 9.5 1.55 2.48 3.27 5.51 3.83 6.75 0.56 1.24 1.36 2.25 1.77 2.25 0.41 0 0.78 0.56 0.83 1.25 0.04 0.69 0.82 2.49 1.75 4 0.92 1.51 2.12 2.75 2.67 2.75 0.55 0 1.79 1.55 2.75 3.45 0.96 1.9 2.09 3.25 2.5 3 0.41-0.25 0.75 0.23 0.75 1.05 0 0.82 1.91 4.06 4.25 7.2 2.34 3.13 5.01 7.07 5.94 8.75 0.93 1.68 2.17 4.29 2.75 5.8 0.58 1.51 1.4 2.74 1.81 2.73 0.41-0.02 1.12 1.45 1.56 3.25 0.45 1.8 1.12 5.52 1.5 8.27 0.37 2.75 0.64 8.82 0.59 13.5-0.05 4.68-0.6 11.2-1.21 14.5-0.62 3.3-2.15 7.82-3.41 10.05-1.25 2.23-3.28 5.61-4.49 7.5-1.22 1.9-3.92 5.44-6 7.86-2.09 2.43-3.68 4.8-3.54 5.25 0.14 0.46-0.2 0.61-0.75 0.34-0.55-0.27-1.01-0.16-1.02 0.25-0.01 0.41-2.24 2.1-4.95 3.75-2.71 1.65-4.77 3.23-4.57 3.5 0.2 0.27-0.39 0.56-1.3 0.63-0.91 0.07-3.57 1.31-5.91 2.75-2.34 1.44-4.25 3.3-4.25 4.12 0 0.82-0.68 1.5-1.5 1.5-0.83 0-1.5 0.45-1.5 1 0 0.55-1.72 3.14-3.83 5.75-2.16 2.67-3.6 5.41-3.3 6.25 0.3 0.84 0.11 1.2-0.42 0.81-0.52-0.37-1.67 0.75-2.56 2.5-0.88 1.76-2.18 4.99-2.88 7.19-0.71 2.2-1.23 6.36-1.15 9.25 0.08 2.89 0.84 7.39 1.69 10 0.85 2.61 1.95 5.65 2.43 6.75 0.48 1.1 2.03 5.04 3.45 8.75 1.41 3.71 2.57 7.2 2.57 7.75 0 0.55 1.34 3.81 2.98 7.25 1.63 3.44 4.1 9.17 5.48 12.75 1.38 3.58 2.52 7.06 2.53 7.75 0 0.69 0.35 1.25 0.76 1.24 0.41-0.01 1.34 2.13 2.06 4.75 0.72 2.62 2.37 5.66 3.66 6.76 1.3 1.1 2.62 3.01 2.94 4.25 0.43 1.65-0.24 3.12-2.51 5.5-2.84 2.98-3.64 3.26-9.75 3.41-4.06 0.1-7.72-0.39-9.4-1.25-1.51-0.77-4.44-3.22-6.5-5.43-2.06-2.22-3.98-3.64-4.25-3.15-0.28 0.48-1.51 1.39-2.75 2.02-1.83 0.94-2.62 0.83-4.23-0.6-1.19-1.05-2.09-3.28-2.25-5.6-0.23-3.23 0.21-4.25 2.73-6.34 1.65-1.36 4.8-3.34 7-4.38 2.2-1.04 5.46-1.9 7.25-1.91 1.79-0.01 3.25-0.25 3.25-0.52 0-0.27-0.45-1.4-1-2.5-0.59-1.18-1.51-1.72-2.25-1.31-1 0.56-1 0.36 0-1 1.01-1.36 0.98-2.22-0.14-4.44-0.76-1.51-2.78-5.56-4.5-9-1.71-3.44-3.11-6.81-3.12-7.5-0.01-0.69-1.22-3.73-2.69-6.75-1.48-3.02-2.73-6.17-2.77-7-0.05-0.83-0.81-3.98-1.7-7-0.89-3.02-1.92-8.2-2.28-11.5-0.44-4.04-0.13-8.28 0.94-13 0.96-4.26 2.93-9.05 5.05-12.25 1.9-2.89 3.71-6.26 4.01-7.5 0.53-2.14 0.19-2.28-6.75-2.92-4.01-0.36-10.45-1.82-14.3-3.23-3.85-1.41-7.56-2.57-8.25-2.58-0.69-0.01-3.39-1.56-6-3.44-2.61-1.88-5.76-4.58-7-6-1.24-1.42-2.93-2.58-3.75-2.58-0.83 0-1.5-0.68-1.5-1.5 0-0.89-0.61-1.3-1.5-1-0.83 0.27-1.28 0.05-1-0.5 0.27-0.55 0.05-1.23-0.5-1.5-0.55-0.27-5.84 1.11-11.75 3.07-5.91 1.96-11.65 3.94-12.75 4.4-1.1 0.45-3.46 1.32-5.25 1.93-1.79 0.6-3.07 1.44-2.85 1.85 0.22 0.41-0.35 0.74-1.25 0.73-0.91 0-2.89-0.79-4.4-1.75-2.36-1.49-2.69-2.26-2.34-5.48 0.22-2.06 0.95-6 1.61-8.75 0.66-2.75 3.12-9.05 5.47-14 2.36-4.95 5.57-10.54 7.15-12.43 1.57-1.88 4.88-5.7 7.36-8.5 2.47-2.79 5.17-5.49 6-6 0.82-0.51 2.74-2.2 4.25-3.75 1.51-1.55 2.75-2.59 2.75-2.32 0 0.27 2.04-0.96 4.53-2.75 2.49-1.79 4.51-3.59 4.5-4-0.02-0.41 0.53-0.76 1.22-0.78 0.69-0.02 3.5-1.14 6.25-2.49 2.75-1.35 5.56-2.47 6.25-2.47 0.69-0.01 1.25-0.46 1.25-1.01 0-0.55 1.01-1.2 2.25-1.44 1.24-0.25 5.17-1.13 8.75-1.97 3.57-0.83 9.42-1.54 13-1.57 3.57-0.02 8.86 0.41 11.75 0.97 2.92 0.56 8.02 2.73 11.5 4.9 3.44 2.13 6.59 4.49 7.01 5.25 0.42 0.75 1.65 2.71 2.74 4.36 1.09 1.65 2.26 3.68 2.61 4.5 0.35 0.82 1.57 3.52 2.72 6 1.68 3.61 2.14 6.77 2.32 16 0.14 7.01-0.33 14.04-1.19 18-0.77 3.57-1.64 7.06-1.93 7.75-0.29 0.69-0.08 1.48 0.47 1.75 0.55 0.27 2.01-0.53 3.25-1.78 1.24-1.26 3.71-4.07 5.49-6.25 1.78-2.19 3.24-4.53 3.25-5.22 0-0.69-0.44-1.02-0.99-0.75-0.55 0.27-1 0.05-1-0.5 0-0.55 0.67-0.77 1.5-0.5 1.05 0.35 2.2-1.08 3.85-4.75 1.29-2.89 2.85-7.95 3.48-11.25 0.62-3.3 0.93-8.02 0.68-10.5-0.24-2.48-1.18-7.43-2.07-11-0.9-3.57-2.6-8.3-3.78-10.5-1.19-2.2-2.77-4.68-3.52-5.5-0.75-0.82-2-2.85-2.77-4.5-0.77-1.65-2.98-4.8-4.89-7-1.92-2.2-3.48-4.45-3.47-5 0.01-0.55-2.46-4.04-5.49-7.75-3.04-3.71-6.83-9.56-8.43-13-1.6-3.44-3.62-8.27-4.49-10.75-1.03-2.95-1.58-8.03-1.59-14.75-0.01-9.14 0.3-10.93 2.82-16.5 1.56-3.44 4.03-7.6 5.48-9.25 1.46-1.65 2.99-3.33 3.42-3.74 0.42-0.41 2.12-1.82 3.77-3.15 1.65-1.32 4.91-3.12 7.25-4.01 2.34-0.88 4.23-2.03 4.21-2.56-0.03-0.58 4.79-0.81 12.25-0.59zm-78.46 117.89c-3.16 1.46-5.98 3.11-6.25 3.66-0.28 0.55-1.38 1-2.45 1-1.07 0-2.76 0.91-3.75 2.03-0.99 1.12-2.36 2.02-3.05 2-0.69-0.02-1.81 0.87-2.5 1.97-0.69 1.11-1.48 1.99-1.75 1.97-0.28-0.02-3.83 3.02-7.89 6.75-5.5 5.04-7.23 7.23-6.75 8.53 0.46 1.27 0.22 1.61-0.86 1.25q-1.5-0.5-3 3c-0.83 1.93-2.41 4.51-3.52 5.75-1.11 1.24-2.01 2.7-2.01 3.25 0.01 0.55-0.65 2.24-1.48 3.75-0.82 1.51-1.15 2.91-0.74 3.12 0.41 0.2 1.87 0.24 3.25 0.09 1.37-0.15 4.75-1.07 7.5-2.05 2.75-0.97 5.11-2.14 5.25-2.59 0.14-0.45 1.15-0.82 2.25-0.82 1.1 0 3.01-0.49 4.25-1.1 1.65-0.8 3.45-0.78 6.75 0.07 3.24 0.84 5.3 2.19 7.35 4.85 1.57 2.02 5.39 5.61 8.5 7.98 3.11 2.36 6.21 4.05 6.9 3.75 0.69-0.3 2.37 0.58 3.75 1.95 1.5 1.5 4.5 2.9 7.5 3.5 2.75 0.55 8.37 1 12.5 1 4.12 0 7.72-0.45 8-1 0.27-0.55 1.17-0.77 2-0.5 0.82 0.27 2.4-0.4 3.5-1.5 1.1-1.1 1.77-2.45 1.5-3-0.28-0.55 0.11-1.79 0.86-2.75 0.75-0.96 1.88-3.32 2.51-5.25 0.64-1.93 1.16-4.51 1.15-5.75-0.01-1.24 0.5-2.36 1.14-2.5 0.79-0.17 1.19-4.02 1.25-12.25 0.05-6.6-0.25-13.24-0.66-14.75q-0.75-2.74-1.99-2-1.23 0.74-0.5-0.5c0.41-0.69 0.06-2.6-0.76-4.25-0.83-1.65-2.51-4.1-3.75-5.44-1.35-1.46-2.79-2.17-3.6-1.75-0.95 0.48-1.16 0.24-0.7-0.81 0.45-1.03-0.22-1.88-2.15-2.7-1.54-0.66-4.6-1.67-6.8-2.24-2.2-0.58-6.7-1.01-10-0.97-3.3 0.05-8.03 0.65-10.5 1.34-2.48 0.69-7.09 2.45-10.25 3.91zm-617.41-5.76c1.19 0.37 3.31 1.33 4.72 2.14 2.24 1.28 2.53 2.05 2.33 6.12-0.14 2.56-0.67 5.79-1.2 7.16-0.52 1.38-0.97 2.95-0.98 3.5-0.02 0.55-0.46 1.23-0.97 1.5-0.52 0.27-2.1 3.43-3.53 7-1.42 3.57-3.51 8.64-4.65 11.25-1.13 2.61-2.51 4.98-3.06 5.25-0.55 0.27-0.89 1.41-0.75 2.51 0.14 1.17 0.78 1.8 1.5 1.5 0.69-0.28 1.47 0.39 1.75 1.49 0.27 1.1 0.95 2 1.5 2 0.55 0 1-0.45 1-1 0-0.55 0.67-1 1.5-1 0.82 0 2.62-0.68 4-1.5 1.37-0.82 3.29-1.26 4.25-0.97 0.96 0.28 3.77 0.57 6.25 0.64 2.47 0.06 3.94 0.28 3.25 0.47-0.69 0.2 0.66 1.43 3 2.73 2.51 1.4 4.66 2.01 5.25 1.5 0.55-0.48 2.95-0.99 5.32-1.12 2.74-0.16 4.76-0.88 5.5-1.96 0.65-0.94 1.63-1.73 2.18-1.74 0.55-0.02 2.14-1.27 3.53-2.79 1.4-1.52 4.1-4.09 6-5.72 1.91-1.63 5.04-3.52 6.97-4.2 2.74-0.96 4.31-0.97 7.23-0.04 2.14 0.69 4.17 2.16 4.75 3.45 0.88 1.95 0.45 2.82-3.22 6.5-2.33 2.34-4.47 4.3-4.75 4.35-0.28 0.06-1.97 0.62-3.76 1.25-1.79 0.63-3.7 2.05-4.25 3.15-0.55 1.1-1.68 2-2.5 2-0.83 0-1.28 0.45-1 1 0.27 0.55-0.18 1-1 1-0.83 0-1.98 1.24-2.56 2.75-0.58 1.51-1.29 3.65-1.58 4.75-0.35 1.35 0.37 2.81 2.23 4.5 1.51 1.38 4.68 4.3 7.04 6.5 2.75 2.56 4.32 4.9 4.36 6.5 0.05 1.77-0.74 2.9-2.71 3.89-1.53 0.76-6.38 1.99-10.78 2.73-4.4 0.74-9.91 1.35-12.25 1.36-2.34 0.01-6.05-0.88-8.25-1.98-2.2-1.1-4.23-2.45-4.5-3-0.28-0.55 0.17-1.79 0.99-2.75 1.24-1.45 2.23-1.6 5.75-0.88q4.26 0.87 6.51-0.25c1.24-0.62 3.15-1.12 4.25-1.12 1.1 0 3.46-0.73 8.5-3.24l-4.6-4.63c-2.79-2.8-5.16-6.36-6-9.02-0.77-2.42-1.96-4.56-2.65-4.75-0.69-0.2-2.49 0.59-4 1.75-1.51 1.16-3.43 3.49-4.25 5.19-0.83 1.7-3.53 5.32-6 8.04-2.48 2.71-6.3 6.32-8.5 8.02-3.71 2.85-4.54 3.06-11.5 2.91-5.75-0.13-7.92-0.58-9.28-1.97-0.98-0.99-1.77-3.04-1.75-4.55 0.02-1.91-0.35-2.54-1.22-2.06-1 0.56-1 0.36 0-1 0.69-0.93 1.04-2.03 0.78-2.44-0.26-0.41 0.84-2.1 2.44-3.75 1.66-1.71 2.68-3.65 2.37-4.5-0.3-0.82 0.18-2.96 1.06-4.75 0.88-1.79 1.37-3.7 1.1-4.25-0.28-0.55-1.18-1-2-1-0.83 0-1.73 0.9-2 2-0.28 1.1-0.95 2-1.5 2-0.55 0-1 0.68-1 1.5 0 0.82-0.45 2.4-1 3.5-0.55 1.1-1.45 2.9-2 4-0.55 1.1-1 2.9-1 4 0 1.1-0.45 1.77-1 1.5-0.55-0.27-1 0.06-1 0.75 0 0.69-1.06 3.27-2.36 5.75-1.29 2.48-2.72 5.85-3.17 7.5-0.44 1.65-0.84 3.3-0.89 3.67-0.04 0.36-0.43 1.04-0.86 1.5-0.43 0.45-0.76 1.17-0.75 1.58 0.02 0.41 2.17 0.76 4.78 0.78 3.11 0.01 5.36 0.61 6.53 1.75 1.2 1.16 1.78 3.19 1.76 6.22-0.01 2.48-0.7 5.51-1.53 6.75-1.36 2.02-2.33 2.25-17.51 2.25l-0.08 5.75c-0.04 3.16-0.26 6.54-0.5 7.5-0.23 0.96 0.03 1.75 0.58 1.75 0.55 0 0.77 0.45 0.5 1-0.28 0.55 0.06 0.99 0.75 0.98 0.92-0.01 1.06 1.11 0.51 4.25-0.4 2.35-0.85 4.41-1 4.59-0.14 0.17-1.27 0.06-2.51-0.25-1.24-0.32-2.76-1.81-3.39-3.32-0.63-1.51-1.75-4.21-2.5-6-0.75-1.79-1.7-6.2-2.86-16.34l-15 0.59-0.5 27.5 11-0.25c6.05-0.14 11 0.09 11 0.5 0 0.41 0.9 0.98 2 1.25 1.1 0.27 2.48 1.74 3.07 3.25 0.59 1.51 0.8 4.1 0.46 5.75-0.34 1.65-1.38 3.8-2.32 4.78-1.45 1.52-3.47 1.78-25.21 1.72l0.02 20.25c0.01 14.73-0.33 20.75-1.25 22.1-0.95 1.37-3.09 2.01-8.43 2.5-3.94 0.36-7 0.42-6.79 0.15 0.2-0.27-0.51-1.17-1.59-2-1.9-1.45-1.97-3.17-2.21-51.75-0.14-27.64-0.03-50.26 0.25-50.27 0.27 0 1.92-1.24 3.66-2.75 1.74-1.5 3.88-4.42 4.75-6.48 0.88-2.06 1.38-4.09 1.13-4.5-0.25-0.41-0.08-2.1 0.39-3.75 0.58-2.08 0.38-4.07-0.67-6.5-0.82-1.93-1.65-6.65-1.83-10.5-0.29-6.31-0.13-7.02 1.63-7.25 1.07-0.14 3.29-0.48 4.94-0.75 1.65-0.27 3.79-0.48 4.75-0.46 1.01 0.02 2.21-1.14 2.84-2.75 0.61-1.53 1.83-5.04 2.73-7.79 0.9-2.75 1.65-6.01 1.66-7.25 0.01-1.24 0.58-3.38 1.27-4.75 1.01-2.02 1-2.93-0.09-4.75-0.8-1.35-1.1-3.55-0.75-5.5 0.32-1.79 1.15-3.41 1.84-3.6 0.69-0.19 1.58-1.88 1.99-3.75 0.41-1.87 1.55-4.09 2.55-4.94 1.16-0.98 2.9-1.34 4.82-1 1.65 0.3 3.82 1.22 4.82 2.04 1.5 1.23 1.73 2.48 1.3 7-0.29 3.02-1.55 9.1-2.8 13.5-1.24 4.4-3.35 10.48-4.67 13.5-1.33 3.02-2.13 6.18-1.78 7 0.53 1.26 2.12 1.38 9.83 0.77 5.05-0.41 9.64-1.22 10.19-1.82 0.55-0.59 1.07-1.61 1.16-2.26 0.08-0.66 1.33-3.67 2.76-6.69 1.44-3.02 3.5-6.85 4.59-8.5 1.08-1.65 2.23-3.68 2.54-4.5 0.32-0.82 1.18-2.85 1.91-4.5 0.73-1.65 1.91-4.57 2.63-6.5 0.71-1.93 1.58-3.73 1.92-4 0.35-0.27 1.42-2.52 2.38-5 0.97-2.48 2.44-5.53 3.27-6.8 1.13-1.71 2.07-2.13 3.68-1.62zm-51.58 62.47c0.15 0.8-0.64 2.46-1.75 3.7-1.1 1.24-2.01 2.7-2.01 3.25 0 0.55-0.85 2.91-1.89 5.25-1.05 2.34-3.07 7.29-4.5 11-1.44 3.71-2.61 7.2-2.61 7.75 0 0.62 4.03 0.9 10.6 0.75l10.61-0.25c1.97-6.2 3.17-10.79 3.92-14.19 0.75-3.41 1.73-6.11 2.16-6 0.44 0.1 2.11-3.18 3.72-7.31 2.19-5.6 2.62-7.69 1.71-8.23-0.67-0.41-1.45-0.7-1.72-0.65-0.28 0.05-4.55 0.86-9.5 1.79-6.71 1.26-8.93 2.07-8.74 3.14zm-13.94 2.78c0.16 2.77 0.45 3.3 1.17 2.17 0.53-0.82 0.67-2.4 0.3-3.5-0.46-1.4-0.31-1.78 0.53-1.25 0.72 0.46 1.18 0.16 1.18-0.75 0-0.82-0.11-1.46-0.25-1.42-0.14 0.04-0.9 0.3-1.7 0.58q-1.45 0.5-1.23 4.17zm62.29 5.86c-1.42 2.31-2.47 4.67-2.34 5.25 0.13 0.58 0.79 1.07 1.48 1.08 0.69 0.01 3.49-1.45 6.22-3.25 2.74-1.8 6.41-4.84 8.17-6.77 1.75-1.93 3-3.84 2.77-4.25-0.22-0.41-2.8-0.75-5.71-0.75-4.43 0-5.52 0.37-6.66 2.25-0.75 1.24-2.52 4.14-3.93 6.44zm218.64-71.31c2.11 0.08 3.29 0.65 3.36 1.62 0.06 0.83 0.02 2.63-0.09 4-0.11 1.38-1.03 4.08-2.04 6-1 1.93-3.49 7.1-5.53 11.5-2.03 4.4-4.27 8.68-4.97 9.5-0.71 0.83-1.74 3.08-2.31 5-0.56 1.93-2.1 6.43-3.41 10-1.31 3.58-3.14 7.96-4.07 9.75-0.93 1.79-1.69 4.04-1.7 5 0 0.96-0.67 2.99-1.5 4.5-0.82 1.51-1.15 2.99-0.74 3.28 0.41 0.29 1.09 0.51 1.5 0.5 0.41-0.02 0.75-0.7 0.75-1.53 0-0.82 0.34-1.51 0.75-1.52 0.41-0.01 2.1-2.28 3.75-5.05 1.65-2.76 3.8-6.02 4.78-7.23 0.98-1.21 1.76-2.43 1.74-2.7-0.02-0.27 1.31-1.29 2.97-2.25 1.65-0.96 4.02-1.76 5.26-1.77 1.24-0.02 3.94 0.66 6 1.5 3.58 1.45 3.78 1.42 4.5-0.52 0.41-1.13 1.65-2.29 2.75-2.59 1.1-0.3 3.24-0.28 4.75 0.05 1.51 0.32 2.8 1.14 2.87 1.83 0.06 0.69 0.01 2.15-0.11 3.25-0.12 1.1-1.03 3.13-2.01 4.5-0.99 1.38-2.96 5.09-4.4 8.25-1.43 3.16-2.6 5.98-2.6 6.25 0 0.27 0.67 0.5 1.5 0.5 0.82 0 3.34-1.69 5.58-3.75 2.25-2.06 5-5.55 6.11-7.75 1.13-2.23 1.82-5.1 1.56-6.5-0.26-1.37-0.76-3.29-1.11-4.25-0.42-1.14 0.32-2.85 2.11-4.89 2.25-2.57 3.25-3.02 5.5-2.5 1.51 0.35 3.65 1.54 4.75 2.64 1.29 1.29 2 3.34 2 5.75 0 2.06-0.46 7.58-1.02 12.25-0.57 4.68-1.52 9.85-2.12 11.5-0.6 1.65-1.72 4.46-2.48 6.25-0.76 1.79-1.38 3.81-1.39 4.5 0 0.69-0.7 2.6-1.56 4.25-0.85 1.65-1.3 3.79-0.99 4.75 0.4 1.24 0.13 1.61-0.94 1.25-0.88-0.29-1.36 0.02-1.15 0.75 0.19 0.69 0.86 2.49 1.5 4 0.81 1.94 1.15 16.25 1.15 48.75 0 28.33-0.38 46.96-1 48.5-0.6 1.51-2.28 2.9-4.25 3.52-1.79 0.56-4.49 1.01-6 1-1.51-0.01-4.1-0.69-8.75-3.02l-0.58-11.25c-0.32-6.19-0.44-20.14-0.25-31 0.18-10.86 0.22-19.75 0.08-19.75-0.14 0-3.74 6.36-8 14.14-4.62 8.43-8.76 14.75-10.25 15.66-2.04 1.25-3.14 1.33-6 0.39-3.08-1.01-4.17-2.42-9-11.59-3.07-5.82-5.94-10.14-6.49-9.77-0.58 0.39-0.68 0.15-0.25-0.58 0.41-0.69 0.06-2.6-0.76-4.25-0.83-1.65-1.84-3.18-2.25-3.4-0.41-0.23-0.75 12.93-0.75 29.25 0 16.31-0.23 30.62-0.5 31.8-0.28 1.19-0.91 2.54-1.41 3-0.53 0.5-0.63 0.33-0.25-0.4 0.36-0.69 0.21-1.25-0.34-1.25-0.55 0-1 0.45-1 1 0 0.56-0.76 0.68-1.75 0.27-1.06-0.44-1.5-0.34-1.11 0.25 0.41 0.62-1.08 0.78-4 0.44-2.55-0.29-5.2-0.86-5.89-1.25-0.69-0.39-2.01-0.15-2.94 0.54-1.36 1-1.56 1-1 0 0.38-0.69 0.67-23.86 0.62-101.75l2.28-2.3c1.94-1.95 3.15-2.25 13.52-1.7l0.56-9.5c0.38-6.36 1.14-10.49 2.3-12.5 0.98-1.69 1.45-3.76 1.08-4.75-0.37-0.96-1.12-1.52-1.67-1.25-0.55 0.27-0.78 1.51-0.51 2.75 0.27 1.24 0.27 1.69 0 1-0.39-1-0.8-1-2.03 0-0.85 0.69-1.51 1.93-1.46 2.75 0.05 0.82-0.61 2.06-1.46 2.75-0.84 0.69-1.32 1.7-1.04 2.25 0.27 0.55-0.06 0.99-0.75 0.98-0.69-0.02-2.26 1.11-3.5 2.5-1.54 1.73-3.27 2.51-5.5 2.5-1.79-0.01-4.83-0.49-6.75-1.07-2.41-0.72-3.97-2.04-5-4.23-0.83-1.75-1.56-3.63-1.63-4.18-0.08-0.55-0.19-1.34-0.25-1.75-0.07-0.41-1.36 0.11-2.87 1.16-1.51 1.06-3.76 2.86-5 4-1.24 1.15-2.25 1.86-2.25 1.59 0-0.27-2.14 0.6-4.75 1.95-2.99 1.55-6.84 2.57-10.4 2.75-4.26 0.23-6.1-0.12-7.5-1.42-1.02-0.95-2.3-1.73-2.85-1.74-0.55 0-1.77-2.38-2.72-5.27-1.43-4.41-1.49-5.52-0.38-6.77 0.73-0.82 1.62-2.74 1.97-4.25 0.34-1.51 1.75-4.1 3.13-5.75 1.37-1.65 2.5-3.45 2.5-4 0-0.55 0.79-1.44 1.75-1.97 0.96-0.53 1.43-0.98 1.05-1-0.39-0.02 0.51-1.22 2-2.66 1.97-1.93 4.04-2.76 7.7-3.09 4.12-0.37 5.55-0.04 8.12 1.88 2.67 2 3.05 2.84 2.69 5.84-0.24 1.93-0.51 4.25-0.62 5.17-0.1 0.91-0.42 1.59-0.69 1.51-0.28-0.08-2.98 2.22-6 5.12-3.03 2.9-7.08 5.92-9 6.7-1.93 0.78-3.85 1.1-4.28 0.71-0.43-0.39-0.76 0.3-0.75 1.54 0.02 1.35 0.73 2.37 1.78 2.54 0.96 0.16 3.89-0.96 6.5-2.5 2.61-1.53 5.09-2.78 5.5-2.77 0.41 0.01 2.21-1.01 3.99-2.25 1.78-1.25 2.91-2.68 2.5-3.18-0.41-0.5-0.18-0.62 0.51-0.25 0.71 0.37 2.01-0.35 3-1.67 0.96-1.28 2.31-2.18 3-2 0.69 0.18 1.25-0.12 1.25-0.67 0-0.55 1.91-2.24 4.25-3.75 2.34-1.51 4.92-2.88 5.75-3.04 0.82-0.16 2.4-1.3 3.5-2.53 1.1-1.24 2.67-3.28 3.5-4.54 1.05-1.6 2.71-2.4 5.5-2.68 2.2-0.21 5.24-0.63 6.75-0.92 1.51-0.3 3.65-0.09 4.75 0.46 1.19 0.59 2.91 0.65 4.25 0.14 1.56-0.59 2.68-2.35 3.66-5.75 0.78-2.69 2.21-6.46 3.18-8.39 0.97-1.93 3.01-6.43 4.52-10 1.52-3.57 3.96-8.3 5.42-10.5 1.47-2.2 3.51-5.45 4.55-7.21 1.04-1.77 2.58-3.4 3.41-3.63 0.83-0.22 2.97-0.35 4.76-0.28zm-85 54.71c-0.69 0.06-3.05 2.09-5.25 4.52-2.2 2.44-3.66 4.64-3.25 4.91 0.41 0.26 1.65 0.03 2.75-0.52 1.22-0.61 1.71-1.49 1.26-2.25-0.44-0.75-0.34-0.96 0.25-0.52 0.54 0.4 1.78-0.16 2.74-1.25 0.96-1.09 1.52-2.43 1.25-2.98-0.28-0.55 0.17-1 1-1 0.82 0 1.5-0.68 1.5-1.5 0-0.82-0.23-1.5-0.5-1.5-0.28 0-0.5 0.45-0.5 1 0 0.55-0.56 1.04-1.25 1.09zm43.25 1.41c-1.27 0.32-1.73 0.96-1.26 1.75q0.73 1.24-0.5 0.5c-0.81-0.49-2.18 0.72-3.94 3.5-1.49 2.34-2.84 5.04-3 6-0.18 1.03 0.22 1.59 0.95 1.38 0.69-0.21 1.1-1 0.92-1.75-0.19-0.76 0.04-1.05 0.5-0.64 0.45 0.41 1.39 0.3 2.08-0.25 0.69-0.54 1.02-1.44 0.75-1.99-0.28-0.55 0.17-1 1-1 0.82 0 1.72-0.9 2-2 0.27-1.1 0.95-2 1.5-2 0.55 0 1.49-1.01 2.08-2.25 0.78-1.62 0.78-2.53-0.01-3.25q-1.11-1.02-1.09 0.25c0.01 0.69-0.88 1.48-1.98 1.75zm33 13q1.01 1 5.49-3.5c2.46-2.48 4.71-5.29 4.99-6.25 0.32-1.08-0.02-1.75-0.88-1.75-0.77 0-3.47 2.36-6 5.25q-4.61 5.25-3.6 6.25zm-17.57 9.5q-1.52 1.5-2.23 10.66c-0.61 8.04-0.48 9.38 1.09 11 1.01 1.04 1.65 2.93 1.48 4.34-0.18 1.38-0.87 2.39-1.54 2.25-0.68-0.14-1.23 0.09-1.23 0.5 0.01 0.41 0.99 2.33 2.19 4.25 1.21 1.92 3.51 6.2 5.12 9.5 1.62 3.3 3.11 5.44 3.31 4.75 0.27-0.88 1.2-1 3.13-0.42 1.7 0.51 2.94 1.71 3.25 3.14 0.45 2.08 0.63 2.15 1.75 0.67 0.69-0.9 0.91-2.2 0.5-2.88-0.55-0.91-0.37-0.97 0.68-0.25 1.18 0.81 1.3 0.54 0.69-1.51-0.52-1.72-0.46-2.03 0.19-1 0.77 1.22 1.25 0.88 2.57-1.75 0.93-1.88 1.3-3.93 0.87-4.87q-0.76-1.62 0.52-1.25c0.74 0.21 2.99-2.78 5.37-7.13 2.25-4.12 4.71-8.17 5.48-9 0.76-0.83 1.05-1.87 0.63-2.33-0.41-0.46-0.3-0.73 0.25-0.59 0.55 0.13 1.79-0.06 2.75-0.42 0.96-0.36 1.75-1.33 1.75-2.16 0-0.83 0.34-1.49 0.75-1.48 0.41 0.02 1.42-1.83 2.25-4.11 0.82-2.27 2.08-4.65 2.79-5.27 0.72-0.63 1.28-1.48 1.25-1.89-0.02-0.41-0.94-0.75-2.04-0.75-1.1 0-2 0.34-2 0.75 0 0.41-2.02 0.86-4.5 1-2.5 0.14-4.5-0.19-4.5-0.75 0-0.55-0.9-0.77-2-0.5-1.29 0.32-1.87 0.06-1.64-0.75 0.21-0.69-0.02-2.04-0.5-3-0.47-0.96-1.54-1.75-2.36-1.75-0.83 0-2.06 0.9-2.75 2-0.69 1.11-1.94 2.12-2.78 2.25-0.84 0.14-2.76 1.04-4.25 2-1.67 1.07-4.23 1.65-6.63 1.5-2.15-0.14-3.72-0.59-3.5-1 0.23-0.41-0.27-0.75-1.09-0.75-1.06 0-1.5-1.09-1.52-3.75 0-2.06-0.45-4.43-0.98-5.25-0.75-1.15-0.98-0.81-1.01 1.5-0.02 1.65-0.73 3.68-1.56 4.5zm63.65-57.5c2.16 0 3.92 0.34 3.92 0.75 0 0.41 0.56 0.41 1.24 0q1.23-0.74 0.5 0.5c-0.41 0.69-0.29 1.48 0.26 1.75 0.55 0.27 1 2.07 1 4 0 1.93-0.45 3.5-1 3.5-0.55 0-1 0.45-1 1 0 0.55-0.64 1.68-1.43 2.5-0.78 0.82-2.47 1.5-3.75 1.51-1.28 0-3.33-0.67-4.57-1.5-1.66-1.11-2.26-2.5-2.27-5.26-0.01-2.38 0.72-4.57 2-6 1.11-1.24 1.83-2.36 1.6-2.5-0.23-0.14 1.35-0.25 3.5-0.25zm-176.08 17.55c0.82-0.05 2.49 1 3.69 2.34 1.73 1.93 2.06 3.15 1.53 5.78-0.36 1.83-0.71 4.01-0.76 4.83-0.05 0.82 0.05 1.84 0.22 2.25 0.18 0.41 2.07-0.94 4.21-3 2.13-2.06 6.63-5.21 10-7 5.47-2.91 6.29-3.1 7.86-1.78 0.96 0.81 2.54 1.48 3.5 1.5 0.98 0.02 2.19 1.23 2.75 2.78 0.55 1.51 1.51 3.49 2.13 4.39 0.88 1.28 0.6 2.99-1.25 7.71-1.31 3.33-2.61 5.89-2.88 5.68-0.28-0.22-1.85 1.59-3.5 4.02-1.65 2.42-3.34 4.42-3.75 4.43-0.41 0.01-0.41 0.58 0 1.26 0.45 0.74 0.35 0.95-0.25 0.52-0.55-0.4-1.9 0.18-3 1.28-1.1 1.11-3.26 2.56-4.8 3.23-1.63 0.72-2.58 1.75-2.25 2.48 0.3 0.69 0.21 1.05-0.2 0.81-0.41-0.24-2.78 0.25-5.25 1.1-2.48 0.84-6.08 1.53-8 1.51-2.77-0.02-3.5 0.37-3.5 1.86 0 1.04-0.45 2-1 2.13-0.55 0.13-1.72 1.84-2.59 3.79-0.87 1.95-2.16 5.35-2.86 7.55-0.7 2.2-2.01 4.58-2.91 5.29-0.9 0.71-1.58 1.61-1.51 2 0.07 0.39-0.27 1.72-0.75 2.96-0.48 1.24-0.86 2.59-0.84 3 0.03 0.41-0.67 1.42-1.54 2.25-0.87 0.83-1.57 2.29-1.54 3.25 0.02 0.96-0.41 1.75-0.96 1.75-0.55 0-1 0.67-1 1.5 0 0.83-0.45 1.5-1 1.5-0.55 0-1.26 2.14-1.58 4.75-0.33 2.61-0.77 5.42-0.98 6.25-0.22 0.83-1.72 1.95-3.33 2.5-2.79 0.95-3.01 0.81-4.71-3-1.49-3.36-1.61-4.8-0.72-9 0.58-2.75 2.27-8.15 3.76-12 1.48-3.85 3.41-9.7 4.29-13 0.88-3.3 2.2-6.56 2.93-7.25 0.74-0.69 1.41-1.81 1.49-2.5 0.09-0.69 0.24-1.7 0.33-2.25 0.1-0.55 0.77-2.35 1.49-4 0.72-1.65 1.98-4.57 2.79-6.5 0.81-1.93 1.63-4.62 1.82-6 0.18-1.37 1.45-6.32 2.81-11 1.36-4.68 2.89-9.85 3.39-11.5 0.51-1.65 1.67-4.42 2.58-6.16 0.9-1.74 2.21-3.39 2.89-3.67 0.69-0.28 1.92-0.56 2.75-0.62zm21.5 15.95c0.27 0.55-0.06 0.78-0.75 0.5-0.69-0.27-4.06 2.43-7.5 6-3.44 3.58-6.03 6.95-5.75 7.5 0.27 0.55-0.04 0.89-0.7 0.75-0.67-0.14-1.34 0.31-1.5 1-0.17 0.69-0.3 1.7-0.3 2.25 0 0.55-0.68 0.77-1.5 0.5q-1.5-0.5-1.5 1.5c0 1.1 0.45 2 1 2 0.55 0 3.14-1.59 5.75-3.53 2.61-1.94 4.41-3.52 4-3.5-0.41 0.02 1.16-1.72 3.5-3.86 2.34-2.14 5.26-5.74 6.5-8 1.24-2.26 2.25-4.56 2.25-5.11 0-0.55-0.65-1-1.45-1-0.8 0-1.7 0.45-2 1-0.3 0.55-0.33 1.45-0.05 2zm177.75-7.86c2.06-0.08 4.54 0.25 5.5 0.73 0.96 0.48 2.54 1.6 3.5 2.5 0.96 0.9 1.75 2.98 1.75 4.63 0 1.65-0.52 4.01-1.16 5.25-0.64 1.24-1.99 2.81-3 3.5-1.01 0.69-1.54 1.81-1.18 2.5 0.37 0.69 0.26 0.92-0.25 0.5-0.5-0.42-1.69 0.03-2.64 1-0.95 0.96-1.52 2.09-1.25 2.5 0.26 0.41-0.2 0.75-1.02 0.75-0.83 0-1.73 0.68-2 1.5-0.28 0.82-1.18 1.27-2 1-0.83-0.27-1.5-0.27-1.5 0 0 0.27 0.22 1.18 0.5 2 0.32 0.96 1.13 1.26 2.25 0.83 0.96-0.37 4.45-2.74 7.75-5.25 3.3-2.52 6.15-4.35 6.35-4.08 0.19 0.27 1.54-0.5 3-1.73 1.46-1.23 4.11-3.37 5.9-4.75 1.79-1.39 4.15-2.52 5.25-2.52 1.1 0 2-0.45 2-1 0-0.55 0.67-1.23 1.5-1.5 0.82-0.27 2.17-0.27 3 0 0.82 0.27 1.39 1.25 1.25 2.18-0.14 0.92-2.73 4.05-5.75 6.95-3.03 2.9-7.08 6.45-9 7.88-1.93 1.43-7.21 4.82-11.75 7.54-7.09 4.25-8.99 4.95-13.5 4.95-3.94 0.01-6.18-0.61-9-2.5-2.06-1.37-3.75-3.18-3.75-4 0-0.82-0.34-1.32-0.75-1.1-0.41 0.23-0.73-0.79-0.71-2.25 0.03-1.46 0.65-4.45 1.38-6.65 0.73-2.2 2.06-4.8 2.96-5.78 0.89-0.98 1.17-1.78 0.62-1.78-0.55 0-0.21-0.44 0.75-0.97 0.96-0.53 1.75-1.53 1.74-2.22 0-0.69 2.14-3.32 4.75-5.86 3.81-3.68 5.51-4.63 8.51-4.75zm-7.24 16.11c-0.01 0.41 0.33 0.74 0.74 0.73 0.41-0.01 2.44-1.81 4.5-4 2.06-2.19 3.34-4.21 2.83-4.49-0.5-0.28-2.52 1.18-4.49 3.25-1.96 2.07-3.58 4.1-3.58 4.51zm-10.53 29.75c0.27 0 0.33 0.56 0.14 1.25-0.24 0.9 0.96 1.17 4.27 0.95 2.54-0.16 5.57-0.38 6.74-0.5 1.17-0.11 1.85 0.23 1.5 0.75-0.35 0.52 0.01 0.71 0.79 0.41 0.79-0.29 2.01 0.18 2.72 1.05 1.02 1.25 1.31 12.21 1.34 51.59 0.04 46.5-0.08 50.11-1.72 51.54-1.01 0.88-3.99 1.63-7.01 1.75-3.5 0.14-6.26-0.37-11.3-3.29l0.37-49.5c0.2-27.23 0.62-50.62 0.94-52 0.31-1.37 0.61-2.84 0.66-3.25 0.04-0.41 0.3-0.75 0.56-0.75zm-249.44 2.23c1.63 0.42 3.75 0.5 4.71 0.18q1.76-0.6 0.45 0.25c-1.05 0.67-0.99 1.14 0.29 2.34 1.42 1.33 1.59 6.35 1.51 87h18.5c18.07 0 18.53 0.05 20.01 2.25 0.83 1.24 1.51 4.05 1.51 6.25 0 2.2-0.68 5.01-1.51 6.25-1.5 2.24-1.67 2.25-27.76 2.29-24.56 0.04-26.41-0.08-31.25-3.86l-0.23-47.34c-0.14-28.55 0.16-48.83 0.75-51.09 0.7-2.66 1.63-3.89 3.23-4.22 1.24-0.26 3.28-0.6 4.54-0.77 1.26-0.16 3.62 0.05 5.25 0.47zm98.52-0.23c3.72 0 7.71 0.63 9.44 1.5 2.69 1.34 3.41 2.83 6.96 14.25 2.17 7.01 6.03 19.5 8.58 27.75 2.54 8.25 4.99 16.35 5.44 18 0.45 1.65 2.23 7.73 3.96 13.5 1.73 5.77 4.05 13.42 5.18 17 1.12 3.58 1.77 7.51 1.46 8.75-0.32 1.24-1.69 2.81-3.04 3.5-1.35 0.69-2.29 1.48-2.09 1.75 0.2 0.27-2.18 0.62-5.29 0.76-3.51 0.16-6.16-0.22-6.97-1-0.72-0.69-2.43-5.09-3.81-9.76-1.37-4.67-2.7-9.29-2.94-10.25-0.4-1.59-1.9-1.73-31.92-1.25l-2.51 8.6c-1.38 4.72-3.19 9.84-4.01 11.36-1.44 2.65-1.73 2.74-7 2.12-3.03-0.36-6.27-0.73-7.2-0.83-0.94-0.1-1.5-0.31-1.25-0.46 0.25-0.16-0.23-0.96-1.05-1.79-0.83-0.83-1.5-2.4-1.5-3.5 0-1.1 0.73-4.59 1.62-7.75 0.88-3.16 4.03-13.85 6.97-23.75 2.95-9.9 8.53-28.35 12.39-41 5.58-18.28 7.54-23.46 9.58-25.25 2.09-1.84 3.75-2.25 9-2.25zm-2.9 44.25c0.37 0.7 0.26 0.91-0.25 0.47-0.52-0.45-2.29 3.85-4.13 10-1.76 5.93-3.22 11.01-3.24 11.28-0.02 0.27 0.98 0.44 2.22 0.38 1.23-0.07 5.95-0.18 10.49-0.25 7.54-0.12 8.25-0.3 8.25-2.13 0-1.1-2.06-9.31-4.58-18.25-2.52-8.94-4.68-16.7-4.81-17.25-0.12-0.55-1.21 2.49-2.42 6.75-1.2 4.26-1.89 8.31-1.53 9zm191.43-44c5.12-0.19 7.68 0.2 9.89 1.5 2.16 1.26 4.81 5.24 9.52 14.25 3.6 6.88 10.24 19.82 23 45.02l0.5-29.09c0.48-27.64 0.6-29.17 2.5-30.53 1.14-0.82 4.26-1.43 7.25-1.42 4.02 0.02 5.84 0.55 10.26 4.52v48.75c-0.01 29.71-0.39 49.43-0.98 50.5-0.54 0.96-0.8 1.98-0.58 2.25 0.21 0.27-2.61 0.63-6.28 0.8-3.67 0.16-7.57 0.49-8.67 0.74-1.1 0.24-1.44 0.22-0.75-0.05q1.24-0.49-1.25-2.49c-1.38-1.1-4.02-5.04-5.88-8.75-1.85-3.71-3.99-7.99-4.75-9.5-0.75-1.51-1.71-2.52-2.12-2.25-0.41 0.28-0.54 0.16-0.28-0.25 0.26-0.41-2.71-6.83-6.61-14.25-3.9-7.42-8.05-14.33-9.23-15.34-1.17-1.01-1.57-1.57-0.88-1.25 0.69 0.33 1.24 0.25 1.22-0.16-0.02-0.41-0.69-1.65-1.48-2.75-1.2-1.65-1.55-1.74-1.99-0.5-0.3 0.83-0.42 13.28-0.27 27.67 0.15 14.39 0.16 25.98 0.02 25.75-0.14-0.23-1.2 0.5-2.37 1.63-1.77 1.71-3.17 1.99-8.62 1.75-5.16-0.24-6.79-0.71-7.9-2.3-1.15-1.65-1.39-10.79-1.38-51.75 0.01-32.15 0.37-49.93 1.02-50.25 0.55-0.27 0.82-0.84 0.59-1.25-0.22-0.41 2.71-0.86 6.5-1zm107.91-0.18c5.17-0.07 9.36 0.54 13.5 1.95 3.3 1.12 7.8 3.25 10 4.73 2.2 1.48 4.34 2.59 4.75 2.47 0.41-0.12 0.64 0.12 0.51 0.53-0.14 0.41 0.73 2.33 1.92 4.25 1.19 1.92 2.8 6.2 3.56 9.5 1.26 5.4 1.23 6.3-0.29 9-0.93 1.65-1.41 3.45-1.08 4 0.36 0.58 0.09 0.69-0.63 0.25-0.68-0.41-1.47-0.3-1.74 0.25-0.28 0.55-2.19 1.01-4.25 1.02-2.06 0.01-5.21-0.44-7-1-2.59-0.81-3.45-1.79-4.24-4.77-0.55-2.06-0.99-4.42-0.97-5.25 0.02-0.83-0.81-2.62-1.84-4-1.03-1.37-3.74-3.29-6.03-4.25-2.3-0.96-4.96-1.57-5.92-1.34-0.96 0.22-2.99 0.67-4.5 1-1.51 0.32-2.53 1.04-2.25 1.59 0.27 0.55-0.18 0.77-1 0.5-0.83-0.27-1.94 0.29-2.47 1.25-0.54 0.96-0.65 2.16-0.25 2.66 0.39 0.5 0.16 0.61-0.53 0.25-0.77-0.41-1.49 0.2-1.87 1.59-0.35 1.24-0.85 11.25-1.12 22.25-0.32 13-0.08 22.45 0.69 27 0.65 3.85 1.94 7.96 2.86 9.14 0.93 1.18 2.93 2.64 4.44 3.25 1.51 0.61 4.66 1.12 7 1.14 2.8 0.02 5.44-0.76 7.75-2.29 2.29-1.51 3.95-3.69 4.8-6.28 0.71-2.18 1.16-6.21 0.7-13.96l-7.25-0.25c-6.3-0.22-7.32-0.51-7.75-2.25-0.28-1.1-0.84-1.82-1.25-1.61-0.41 0.22-0.53-1.73-0.25-4.33 0.27-2.6 1.17-5.49 2-6.44 1.29-1.47 3.51-1.7 15.75-1.66 14.21 0.04 14.26 0.05 19.58 5.54l-0.46 14.5c-0.39 12.29-0.8 15.26-2.72 19.5-1.24 2.75-3.47 6.28-4.95 7.84-1.49 1.56-4.5 3.88-6.7 5.15-2.2 1.27-5.46 2.58-7.25 2.91-1.79 0.33-3.07 0.94-2.84 1.35 0.22 0.41-4.39 0.46-10.25 0.1-5.86-0.36-12.24-1.15-14.16-1.77-1.93-0.62-4.51-1.79-5.75-2.6-1.24-0.81-3.92-3.17-5.97-5.23-2.04-2.06-3.62-3.86-3.5-4 0.12-0.14-0.39-1.49-1.14-3-0.75-1.51-1.68-4.77-2.06-7.25-0.39-2.48-0.68-16.42-0.64-31 0.05-20.55 0.4-27.62 1.56-31.5 0.83-2.75 2.59-6.58 3.92-8.5 1.33-1.92 4.15-4.74 6.25-6.26 2.11-1.51 6.08-3.39 8.83-4.16 2.75-0.77 8.37-1.45 12.5-1.51zm79.5-0.05c4.58-0.02 10.35 0.65 13.5 1.58 3.02 0.89 6.74 2.47 8.25 3.51 1.53 1.05 3.3 1.56 3.99 1.14q1.23-0.74 0.5 0.5c-0.41 0.7 0.06 2.24 1.08 3.5 0.99 1.24 2.49 3.38 3.33 4.75 0.84 1.38 2.05 4.64 2.69 7.25 0.74 3.04 1.16 14.84 1.16 32.75 0 25.71-0.17 28.43-2.02 33.25-1.11 2.89-2.91 6.26-4 7.5-1.09 1.24-1.68 2.81-1.32 3.5 0.36 0.69 0.36 1.02-0.02 0.75-0.37-0.27-3.93 1.11-7.91 3.07-6.49 3.2-8.16 3.59-16.23 3.77-5.82 0.14-10.94-0.34-14.5-1.37-3.03-0.87-6.4-1.72-7.5-1.9-1.1-0.17-1.9-0.71-1.79-1.19 0.12-0.48-0.93-1.55-2.33-2.38-1.51-0.89-4.04-4.55-9.83-16.5l-0.34-18.5c-0.2-10.17 0.15-24.58 0.76-32 0.61-7.42 1.21-14.47 1.32-15.65 0.12-1.19 0.65-1.86 1.19-1.5 0.59 0.39 0.69-0.04 0.25-1.1-0.44-1.05-0.33-1.55 0.27-1.25 0.55 0.27 1.67-0.62 2.5-2 0.82-1.37 3.16-3.74 5.2-5.25 2.03-1.51 5.97-3.52 8.75-4.47 3.04-1.03 8.22-1.73 13.05-1.76zm-11.75 24.79c-1.5 3.6-1.74 7.52-1.71 27.94 0.04 18.27 0.39 24.67 1.51 27.75 0.81 2.2 2.25 4.79 3.21 5.74 0.96 0.96 3.31 2.13 5.24 2.6 1.92 0.47 4.96 0.7 6.75 0.51 1.79-0.19 3.02-0.8 2.75-1.35-0.28-0.55 0.06-0.76 0.75-0.47 0.69 0.29 2.49-0.83 4-2.5 1.64-1.8 2.45-3.54 2.01-4.28-0.43-0.73-0.33-0.98 0.25-0.59 0.64 0.42 1.26-7.43 1.73-22 0.41-12.46 0.41-25.2 0-28.3-0.58-4.44-1.37-6.22-3.74-8.39-1.65-1.52-4.01-3.14-5.25-3.61-1.24-0.47-3.49-0.85-5-0.84-1.51 0.01-4.55 0.83-6.75 1.81-3.04 1.36-4.42 2.8-5.75 5.98zm90.25-24.71c3.57-0.06 9.09 0.57 12.25 1.39 3.16 0.83 7.44 2.56 9.5 3.85 2.06 1.28 5.06 3.87 6.65 5.75 1.6 1.87 3.51 4.87 4.25 6.66 0.74 1.79 1.46 5.9 1.6 9.15 0.2 4.75-0.14 6.32-1.75 8.03-1.6 1.71-3.15 2.13-7.75 2.1-4.39-0.02-6.22-0.5-7.75-2.03-1.18-1.18-2-3.33-1.99-5.25 0-1.79-0.77-4.37-1.71-5.75-0.95-1.37-2.3-3.06-3.01-3.75-0.71-0.69-1.85-0.92-2.54-0.51-0.92 0.55-0.99 0.36-0.25-0.73 0.79-1.16 0.64-1.32-0.75-0.74-1.05 0.44-1.55 0.33-1.25-0.27 0.29-0.58-1.17-1-3.5-1-2.2 0-5.13 0.45-6.5 1-1.38 0.55-3.4 2.46-4.5 4.25-1.09 1.79-1.99 4.49-2 6 0 1.51 0.79 4.14 1.75 5.84 1.31 2.31 4.16 4.24 11.25 7.63 5.22 2.49 12.87 6.54 17 9 4.12 2.46 8.62 5.89 9.99 7.63 1.36 1.73 3.03 4.73 3.7 6.65 0.67 1.92 1.25 6.88 1.28 11 0.04 4.13-0.47 9.08-1.12 11-0.65 1.92-2.23 5.19-3.52 7.25-1.28 2.06-2.11 3.98-1.83 4.25 0.27 0.27 0.16 0.29-0.25 0.04-0.41-0.25-2.1 0.64-3.75 1.99-1.65 1.34-5.81 3.35-9.25 4.46-3.76 1.21-8.94 2.01-13 2-3.71-0.01-9.23-0.68-12.25-1.49-3.03-0.82-7.5-2.72-9.94-4.24-2.45-1.52-5.86-4.56-7.58-6.76-1.99-2.54-3.6-6.19-4.4-10-0.75-3.56-0.96-7.43-0.51-9.5 0.42-1.92 0.73-3.73 0.68-4-0.05-0.27 0.44-0.63 1.08-0.8 0.64-0.16 3.64-0.55 6.67-0.86 3.24-0.34 6.42-0.12 7.75 0.54 1.44 0.72 2.64 2.66 3.33 5.37 0.6 2.34 1.73 5.6 2.51 7.25 0.78 1.65 2.76 3.79 4.41 4.75 1.65 0.96 4.8 1.75 7 1.75 2.2 0 5.24-0.61 6.75-1.36 1.51-0.75 3.54-3 4.5-5 0.96-2 1.54-4.88 1.29-6.39-0.26-1.51-2.17-4.28-4.25-6.16-2.09-1.88-9.64-6.21-16.79-9.63-7.15-3.42-14.27-7.51-15.82-9.09-1.54-1.58-3.91-5.12-5.26-7.87-1.88-3.86-2.44-6.6-2.44-12 0-3.85 0.66-9.25 1.47-12 0.81-2.77 3.15-6.95 5.26-9.39 2.08-2.41 5.48-5.23 7.54-6.25 2.06-1.02 5.44-2.26 7.5-2.76 2.06-0.49 6.67-0.95 10.25-1zm56.27 86.61c4.31 0.18 5.67 0.7 7.73 3 1.69 1.89 2.58 4.17 2.75 7.04 0.21 3.65-0.23 4.74-3.15 7.75-2.44 2.52-4.27 3.5-6.5 3.5-1.71 0-4.45-0.67-6.1-1.5-1.65-0.83-3-1.95-3-2.5 0-0.55-0.56-0.83-1.25-0.63-0.9 0.27-1.25-1.3-1.25-5.66 0-3.99 0.42-6.16 1.25-6.38 0.69-0.18 1.15-0.84 1.02-1.47-0.13-0.63 0.56-1.64 1.52-2.25 0.96-0.61 4.1-1.01 6.98-0.9z"/>
</svg>